<svg width="690" height="481" viewBox="0 0 690 481" fill="none" xmlns="http://www.w3.org/2000/svg">
<g clip-path="url(#clip0_147_256)">
<g filter="url(#filter0_d_147_256)">
<path d="M137.478 480.069C213.405 480.069 274.956 475.394 274.956 469.628C274.956 463.861 213.405 459.186 137.478 459.186C61.551 459.186 0 463.861 0 469.628C0 475.394 61.551 480.069 137.478 480.069Z" fill="#E6E6E6"/>
</g>
<path d="M105.085 106.519C129.011 96.3427 158.81 102.79 187.912 107.265C188.183 101.846 191.466 95.2508 188.027 91.4702C183.85 86.877 184.234 82.0509 186.748 77.197C193.176 64.7848 183.966 51.5776 174.667 40.596C172.571 38.1263 169.922 36.1859 166.936 34.9323C163.949 33.6787 160.708 33.1473 157.478 33.3812L140.252 34.6116C136.06 34.911 132.06 36.4834 128.786 39.1185C125.512 41.7536 123.121 45.3256 121.933 49.3567C117.82 54.9508 115.618 60.5294 117.005 66.079C110.844 70.2893 109.808 75.3716 112.577 81.101C114.925 84.7084 114.9 88.2199 112.47 91.6342C109.28 95.9872 106.836 100.841 105.239 105.996L105.085 106.519Z" fill="#2F2E41"/>
<g filter="url(#filter1_d_147_256)">
<path d="M673.624 415.919H185.997C181.661 415.919 177.502 414.197 174.436 411.131C171.37 408.064 169.5 402.905 169.5 398.569C346.265 378.026 519.879 379.026 690 399.569C690 403.905 688.252 408.064 685.186 411.131C682.12 414.197 677.961 415.919 673.624 415.919Z" fill="#2F2E41"/>
</g>
<g filter="url(#filter2_d_147_256)">
<path d="M690 399.569L169.5 398.569L229.976 297.193L230.265 296.712V73.0863C230.265 70.372 230.799 67.6842 231.838 65.1764C232.876 62.6687 234.399 60.3901 236.318 58.4707C238.237 56.5514 240.516 55.029 243.024 53.9903C245.532 52.9517 248.219 52.4173 250.934 52.4175H605.853C608.567 52.4173 611.255 52.9517 613.763 53.9903C616.271 55.029 618.549 56.5514 620.469 58.4707C622.388 60.3901 623.91 62.6687 624.949 65.1764C625.988 67.6842 626.522 70.372 626.522 73.0863V298.251L690 399.569Z" fill="#3F3D56"/>
</g>
<path d="M250.462 66.8442C248.678 66.8462 246.966 67.5562 245.704 68.8184C244.442 70.0805 243.732 71.7918 243.73 73.5768V277.476C243.732 279.261 244.442 280.972 245.704 282.234C246.966 283.496 248.678 284.206 250.462 284.209H609.21C610.995 284.206 612.706 283.496 613.968 282.234C615.23 280.972 615.94 279.261 615.942 277.476V73.5768C615.94 71.7918 615.23 70.0806 613.968 68.8185C612.706 67.5563 610.995 66.8463 609.21 66.8442H250.462Z" fill="white"/>
<path d="M251.966 311.139C251.414 311.14 250.874 311.298 250.41 311.596C249.945 311.893 249.576 312.317 249.344 312.818L230.763 353.213C230.56 353.653 230.472 354.136 230.505 354.619C230.539 355.102 230.693 355.568 230.954 355.976C231.215 356.383 231.575 356.718 231.999 356.951C232.424 357.183 232.9 357.305 233.384 357.305H624.145C624.637 357.305 625.12 357.179 625.55 356.939C625.979 356.7 626.341 356.354 626.599 355.936C626.858 355.518 627.005 355.04 627.027 354.549C627.049 354.057 626.945 353.569 626.725 353.129L606.527 312.734C606.289 312.253 605.921 311.849 605.465 311.568C605.009 311.286 604.483 311.137 603.947 311.139H251.966Z" fill="#2F2E41"/>
<path d="M428.393 63.4781C430.783 63.4781 432.721 61.5404 432.721 59.1501C432.721 56.7598 430.783 54.822 428.393 54.822C426.003 54.822 424.065 56.7598 424.065 59.1501C424.065 61.5404 426.003 63.4781 428.393 63.4781Z" fill="white"/>
<path d="M389.985 364.999C389.35 365 388.734 365.209 388.231 365.595C387.727 365.981 387.365 366.522 387.199 367.134L382.538 384.446C382.423 384.874 382.407 385.322 382.493 385.757C382.579 386.191 382.764 386.6 383.033 386.952C383.303 387.303 383.649 387.588 384.047 387.784C384.444 387.98 384.881 388.082 385.324 388.082H473.966C474.426 388.082 474.879 387.972 475.288 387.761C475.697 387.55 476.049 387.245 476.316 386.87C476.583 386.495 476.756 386.062 476.821 385.607C476.886 385.152 476.842 384.687 476.691 384.253L470.699 366.94C470.502 366.374 470.134 365.882 469.646 365.534C469.157 365.186 468.572 364.999 467.972 364.999H389.985Z" fill="#2F2E41"/>
<path d="M626.522 293.346V297.192H229.976L230.275 296.712V293.346H626.522Z" fill="#2F2E41"/>
<path d="M615.461 134.65C652.644 134.65 682.787 104.508 682.787 67.3252C682.787 30.1425 652.644 0 615.461 0C578.279 0 548.136 30.1425 548.136 67.3252C548.136 104.508 578.279 134.65 615.461 134.65Z" fill="#FF5050"/>
<path d="M643.353 96.6599H587.569C586.549 96.6589 585.571 96.2533 584.85 95.532C584.129 94.8107 583.723 93.8328 583.722 92.8128V59.1501C583.723 58.1301 584.129 57.1522 584.85 56.431C585.571 55.7097 586.549 55.3041 587.569 55.303H643.353C644.373 55.3041 645.351 55.7097 646.072 56.431C646.793 57.1522 647.199 58.1301 647.2 59.1501V92.8127C647.199 93.8328 646.794 94.8107 646.072 95.532C645.351 96.2533 644.373 96.6589 643.353 96.6599ZM587.569 59.1502V92.8128H643.356L643.353 59.1501L587.569 59.1502Z" fill="white"/>
<path d="M632.774 59.15H598.149V43.7614C598.149 32.6154 605.43 24.5256 615.462 24.5256C625.493 24.5256 632.774 32.6154 632.774 43.7614L632.774 59.15ZM601.997 55.3029H628.927V43.7614C628.927 34.7009 623.39 28.3728 615.462 28.3728C607.534 28.3728 601.997 34.701 601.997 43.7614L601.997 55.3029Z" fill="white"/>
<path d="M615.461 78.8667C617.586 78.8667 619.309 77.1442 619.309 75.0195C619.309 72.8948 617.586 71.1724 615.461 71.1724C613.337 71.1724 611.614 72.8948 611.614 75.0195C611.614 77.1442 613.337 78.8667 615.461 78.8667Z" fill="white"/>
<path d="M568.462 215.048H291.209C289.848 215.047 288.543 214.505 287.581 213.543C286.618 212.58 286.077 211.275 286.075 209.914V141.139C286.077 139.778 286.618 138.473 287.581 137.51C288.543 136.548 289.848 136.006 291.209 136.005H568.462C569.824 136.006 571.129 136.548 572.091 137.51C573.054 138.473 573.595 139.778 573.597 141.139V209.914C573.595 211.275 573.054 212.58 572.091 213.543C571.129 214.505 569.824 215.047 568.462 215.048ZM291.209 138.059C290.393 138.06 289.61 138.384 289.032 138.962C288.455 139.539 288.13 140.322 288.129 141.139V209.914C288.13 210.731 288.455 211.514 289.032 212.091C289.61 212.669 290.393 212.993 291.209 212.994H568.462C569.279 212.993 570.062 212.669 570.64 212.091C571.217 211.514 571.542 210.731 571.543 209.914V141.139C571.542 140.322 571.217 139.539 570.64 138.962C570.062 138.384 569.279 138.059 568.462 138.059L291.209 138.059Z" fill="#E6E6E6"/>
<path d="M334.289 193.802C345.84 193.802 355.204 184.438 355.204 172.888C355.204 161.337 345.84 151.973 334.289 151.973C322.739 151.973 313.375 161.337 313.375 172.888C313.375 184.438 322.739 193.802 334.289 193.802Z" fill="#E6E6E6"/>
<path d="M382.592 158.945C382.134 158.944 381.68 159.033 381.256 159.208C380.833 159.383 380.448 159.64 380.123 159.964C379.799 160.287 379.542 160.672 379.366 161.095C379.191 161.518 379.101 161.972 379.101 162.43C379.101 162.889 379.191 163.342 379.366 163.766C379.542 164.189 379.799 164.573 380.123 164.897C380.448 165.221 380.833 165.477 381.256 165.652C381.68 165.827 382.134 165.917 382.592 165.916H546.919C547.844 165.916 548.731 165.549 549.384 164.895C550.038 164.241 550.405 163.355 550.405 162.43C550.405 161.506 550.038 160.619 549.384 159.966C548.731 159.312 547.844 158.945 546.919 158.945H382.592Z" fill="#E6E6E6"/>
<path d="M382.592 179.859C381.667 179.859 380.781 180.226 380.127 180.88C379.473 181.534 379.106 182.42 379.106 183.345C379.106 184.269 379.473 185.156 380.127 185.81C380.781 186.463 381.667 186.831 382.592 186.831H453.302C454.227 186.831 455.113 186.463 455.767 185.81C456.421 185.156 456.788 184.269 456.788 183.345C456.788 182.42 456.421 181.534 455.767 180.88C455.113 180.226 454.227 179.859 453.302 179.859H382.592Z" fill="#E6E6E6"/>
<path d="M229.294 181.269L178.041 208.517L177.393 185.811C194.121 183.018 210.036 178.156 224.752 170.24L230.113 156.997C230.697 155.554 231.646 154.288 232.867 153.322C234.089 152.357 235.54 151.726 237.079 151.491C238.618 151.256 240.192 151.425 241.645 151.982C243.099 152.539 244.383 153.464 245.371 154.667C246.817 156.427 247.54 158.671 247.393 160.944C247.246 163.217 246.241 165.349 244.581 166.909L229.294 181.269Z" fill="#FFB8B8"/>
<path d="M104.064 338.59C103.69 337.218 103.611 335.783 103.831 334.379C104.052 332.975 104.567 331.634 105.343 330.443L116.601 313.164C119.264 309.077 123.35 306.125 128.067 304.881C132.783 303.637 137.794 304.189 142.126 306.43C137.394 314.484 138.054 321.55 143.76 327.69C134.902 332.015 126.715 337.596 119.453 344.261C118.127 345.165 116.604 345.739 115.012 345.935C113.419 346.132 111.803 345.945 110.297 345.39C108.792 344.835 107.441 343.928 106.356 342.745C105.272 341.562 104.486 340.138 104.064 338.59Z" fill="#2F2E41"/>
<path d="M231.628 315.998C229.924 318.837 227.52 321.191 224.644 322.834C221.769 324.476 218.52 325.352 215.208 325.377L140.413 325.943L137.169 307.129L170.256 297.398L142.36 275.989L172.851 240.307L228.234 291.926C231.471 294.943 233.574 298.979 234.192 303.361C234.81 307.743 233.905 312.203 231.628 315.998Z" fill="#2F2E41"/>
<path d="M128.735 444.667H111.219C95.4912 336.862 79.4823 228.756 126.789 188.406L182.583 197.488L175.446 244.848L144.306 280.53L128.735 444.667Z" fill="#2F2E41"/>
<path d="M144.134 469.088C142.762 469.462 141.327 469.542 139.923 469.322C138.519 469.101 137.177 468.586 135.987 467.81L116.967 465.254C112.88 462.591 109.928 458.505 108.683 453.789C107.439 449.073 107.991 444.062 110.232 439.73C118.286 444.461 125.352 443.801 131.492 438.094C135.83 446.854 142.978 446.32 149.804 453.7C150.708 455.025 151.282 456.548 151.479 458.14C151.675 459.733 151.488 461.349 150.933 462.855C150.378 464.36 149.472 465.712 148.289 466.796C147.106 467.88 145.682 468.666 144.134 469.088Z" fill="#2F2E41"/>
<path d="M170.257 116.393L137.818 108.608C143.206 97.58 143.649 85.3094 141.062 72.2769L163.12 71.6282C163.811 87.8344 165.902 102.975 170.257 116.393Z" fill="#FFB8B8"/>
<path d="M179.172 217.022C155.558 233.113 138.873 217.573 126.141 193.596C127.91 178.924 125.045 161.366 119.74 142.288C117.38 133.873 118.261 124.88 122.208 117.083C126.156 109.286 132.883 103.253 141.062 100.174L168.959 111.851C192.647 131.16 197.309 152.074 188.422 174.133L179.172 217.022Z" fill="#FF5050"/>
<path d="M111.219 132.612L85.2684 146.236L131.331 173.484L137.74 189.293C138.168 190.349 138.376 191.48 138.352 192.618C138.329 193.757 138.073 194.878 137.602 195.915C137.131 196.951 136.453 197.881 135.611 198.647C134.769 199.413 133.779 200 132.703 200.371C131.479 200.793 130.174 200.926 128.891 200.759C127.607 200.593 126.38 200.131 125.304 199.411C124.229 198.691 123.334 197.732 122.692 196.608C122.049 195.485 121.675 194.228 121.599 192.936L120.95 181.918L62.4059 162.598C60.4334 161.947 58.6349 160.856 57.1466 159.407C55.6582 157.958 54.5191 156.189 53.8156 154.235C52.79 151.386 52.7378 148.278 53.6671 145.396C54.5965 142.515 56.4548 140.023 58.9515 138.31L106.029 106.012L111.219 132.612Z" fill="#FFB8B8"/>
<path d="M137.17 135.207C126.347 130.464 116.505 135.616 104.083 139.748L102.137 105.364C114.472 98.7895 126.232 97.0169 137.17 102.12L137.17 135.207Z" fill="#FF5050"/>
<path d="M150.116 88.6598C161.554 88.6598 170.827 79.3874 170.827 67.9493C170.827 56.5112 161.554 47.2388 150.116 47.2388C138.678 47.2388 129.406 56.5112 129.406 67.9493C129.406 79.3874 138.678 88.6598 150.116 88.6598Z" fill="#FFB8B8"/>
<path d="M174.893 65.3361C154.388 67.3444 138.763 63.9909 128.777 54.4422V46.7524H173.153L174.893 65.3361Z" fill="#2F2E41"/>
</g>
<defs>
<filter id="filter0_d_147_256" x="-3" y="458.186" width="284.956" height="30.8828" filterUnits="userSpaceOnUse" color-interpolation-filters="sRGB">
<feFlood flood-opacity="0" result="BackgroundImageFix"/>
<feColorMatrix in="SourceAlpha" type="matrix" values="0 0 0 0 0 0 0 0 0 0 0 0 0 0 0 0 0 0 127 0" result="hardAlpha"/>
<feOffset dx="2" dy="4"/>
<feGaussianBlur stdDeviation="2.5"/>
<feComposite in2="hardAlpha" operator="out"/>
<feColorMatrix type="matrix" values="0 0 0 0 0 0 0 0 0 0 0 0 0 0 0 0 0 0 0.25 0"/>
<feBlend mode="normal" in2="BackgroundImageFix" result="effect1_dropShadow_147_256"/>
<feBlend mode="normal" in="SourceGraphic" in2="effect1_dropShadow_147_256" result="shape"/>
</filter>
<filter id="filter1_d_147_256" x="158.5" y="381.652" width="540.5" height="52.2671" filterUnits="userSpaceOnUse" color-interpolation-filters="sRGB">
<feFlood flood-opacity="0" result="BackgroundImageFix"/>
<feColorMatrix in="SourceAlpha" type="matrix" values="0 0 0 0 0 0 0 0 0 0 0 0 0 0 0 0 0 0 127 0" result="hardAlpha"/>
<feOffset dx="-1" dy="8"/>
<feGaussianBlur stdDeviation="5"/>
<feComposite in2="hardAlpha" operator="out"/>
<feColorMatrix type="matrix" values="0 0 0 0 0 0 0 0 0 0 0 0 0 0 0 0 0 0 0.2 0"/>
<feBlend mode="normal" in2="BackgroundImageFix" result="effect1_dropShadow_147_256"/>
<feBlend mode="normal" in="SourceGraphic" in2="effect1_dropShadow_147_256" result="shape"/>
</filter>
<filter id="filter2_d_147_256" x="158.5" y="46.4175" width="540.5" height="367.151" filterUnits="userSpaceOnUse" color-interpolation-filters="sRGB">
<feFlood flood-opacity="0" result="BackgroundImageFix"/>
<feColorMatrix in="SourceAlpha" type="matrix" values="0 0 0 0 0 0 0 0 0 0 0 0 0 0 0 0 0 0 127 0" result="hardAlpha"/>
<feOffset dx="-1" dy="4"/>
<feGaussianBlur stdDeviation="5"/>
<feComposite in2="hardAlpha" operator="out"/>
<feColorMatrix type="matrix" values="0 0 0 0 0 0 0 0 0 0 0 0 0 0 0 0 0 0 0.25 0"/>
<feBlend mode="normal" in2="BackgroundImageFix" result="effect1_dropShadow_147_256"/>
<feBlend mode="normal" in="SourceGraphic" in2="effect1_dropShadow_147_256" result="shape"/>
</filter>
<clipPath id="clip0_147_256">
<rect width="690" height="480.069" fill="white"/>
</clipPath>
</defs>
</svg>
