<svg width="934" height="590" viewBox="0 0 934 590" fill="none" xmlns="http://www.w3.org/2000/svg">
<g clip-path="url(#clip0_147_178)">
<path d="M554.214 18.1003C621.453 -17.9399 706.791 0.954103 752.036 64.8581L750.496 65.9527C705.81 2.83754 621.515 -15.8186 555.104 19.7687C549.462 22.7929 544.015 26.1701 538.797 29.8805C470.504 78.4041 454.35 173.539 502.788 241.953L501.248 243.048C452.208 173.783 468.562 77.464 537.705 28.3376C542.988 24.5819 548.502 21.1628 554.214 18.1003Z" fill="#E6E6E6"/>
<path d="M910.416 172.149L689.263 154.914C685.83 154.642 682.644 153.018 680.405 150.397C678.167 147.775 677.057 144.372 677.32 140.932L686.908 33.2915C687.179 29.8524 688.8 26.6615 691.417 24.4186C694.033 22.1758 697.431 21.0643 700.865 21.328L922.018 38.5632C925.451 38.8347 928.637 40.4592 930.875 43.0804C933.114 45.7016 934.224 49.1054 933.961 52.5451L924.373 160.185C924.102 163.625 922.481 166.816 919.864 169.058C917.247 171.301 913.85 172.413 910.416 172.149Z" fill="#E6E6E6"/>
<path d="M858.177 147.831C856.498 147.831 854.813 147.766 853.122 147.634L710.199 136.496C707.341 136.273 704.555 135.489 702 134.187C699.445 132.886 697.17 131.094 695.307 128.912C693.443 126.73 692.027 124.202 691.139 121.472C690.251 118.742 689.908 115.863 690.13 113L693.389 71.0321C693.845 65.2527 696.57 59.8902 700.967 56.1211C705.364 52.352 711.074 50.4841 716.844 50.9273L901.662 65.3307C907.431 65.7871 912.783 68.517 916.546 72.9218C920.308 77.3265 922.173 83.0463 921.73 88.8265C920.484 104.865 913.251 119.845 901.473 130.78C889.694 141.715 874.236 147.803 858.177 147.831Z" fill="white"/>
<path d="M897.24 98.6942L716.062 84.5744C715.685 84.545 715.317 84.4414 714.979 84.2696C714.642 84.0977 714.341 83.8609 714.095 83.5727C713.849 83.2845 713.662 82.9506 713.545 82.59C713.427 82.2294 713.382 81.8492 713.412 81.4711C713.441 81.0929 713.544 80.7243 713.716 80.3862C713.887 80.0482 714.124 79.7472 714.412 79.5007C714.699 79.2541 715.033 79.0667 715.392 78.9492C715.752 78.8316 716.132 78.7863 716.509 78.8157L897.687 92.9354C898.064 92.9649 898.432 93.0685 898.77 93.2403C899.107 93.4122 899.408 93.649 899.654 93.9372C899.9 94.2254 900.087 94.5593 900.204 94.9199C900.322 95.2805 900.367 95.6607 900.337 96.0388C900.308 96.417 900.205 96.7856 900.033 97.1237C899.862 97.4617 899.625 97.7627 899.337 98.0092C899.05 98.2558 898.716 98.4432 898.356 98.5607C897.997 98.6783 897.617 98.7236 897.24 98.6942Z" fill="#E6E6E6"/>
<path d="M822.01 104.278L715.179 95.9522C714.417 95.8924 713.71 95.5318 713.213 94.9499C712.716 94.368 712.47 93.6122 712.53 92.8488C712.589 92.0854 712.948 91.3769 713.529 90.8789C714.11 90.3809 714.864 90.1343 715.626 90.1932L822.457 98.519C822.835 98.5482 823.203 98.6516 823.541 98.8234C823.879 98.9952 824.179 99.232 824.425 99.5202C824.672 99.8085 824.859 100.142 824.976 100.503C825.094 100.864 825.139 101.244 825.11 101.623C825.08 102.001 824.977 102.37 824.805 102.708C824.634 103.046 824.397 103.347 824.109 103.594C823.821 103.84 823.488 104.028 823.128 104.145C822.767 104.262 822.388 104.308 822.01 104.278Z" fill="#E6E6E6"/>
<path d="M845.543 117.559L714.295 107.33C713.917 107.301 713.549 107.197 713.211 107.026C712.874 106.854 712.573 106.617 712.327 106.329C712.08 106.04 711.893 105.706 711.776 105.346C711.658 104.985 711.613 104.605 711.642 104.226C711.672 103.848 711.775 103.479 711.947 103.141C712.119 102.803 712.355 102.502 712.643 102.255C712.931 102.009 713.265 101.821 713.625 101.704C713.985 101.586 714.365 101.541 714.742 101.571L845.991 111.8C846.753 111.859 847.46 112.22 847.956 112.802C848.453 113.384 848.699 114.14 848.64 114.903C848.58 115.666 848.221 116.375 847.64 116.873C847.06 117.371 846.305 117.618 845.543 117.559Z" fill="#E6E6E6"/>
<path d="M895.617 318.269L674.464 301.034C671.031 300.763 667.845 299.138 665.607 296.517C663.368 293.896 662.258 290.492 662.521 287.052L672.109 179.412C672.38 175.973 674.001 172.782 676.618 170.539C679.235 168.296 682.632 167.185 686.066 167.448L907.219 184.684C910.652 184.955 913.838 186.579 916.077 189.201C918.315 191.822 919.425 195.226 919.162 198.665L909.574 306.306C909.303 309.745 907.682 312.936 905.065 315.179C902.449 317.421 899.051 318.533 895.617 318.269Z" fill="#E6E6E6"/>
<path d="M843.321 293.949C841.666 293.949 840.001 293.884 838.324 293.754L695.4 282.616C692.542 282.393 689.756 281.609 687.201 280.308C684.646 279.007 682.372 277.214 680.508 275.032C678.645 272.85 677.228 270.322 676.34 267.592C675.452 264.862 675.109 261.983 675.331 259.12L678.591 217.153C678.813 214.29 679.596 211.499 680.895 208.939C682.194 206.379 683.984 204.101 686.162 202.234C688.34 200.367 690.863 198.948 693.589 198.058C696.314 197.169 699.188 196.825 702.046 197.048L886.863 211.451C889.721 211.674 892.507 212.458 895.062 213.76C897.617 215.061 899.891 216.854 901.755 219.036C903.618 221.217 905.035 223.745 905.923 226.476C906.811 229.206 907.154 232.084 906.932 234.947C905.666 250.989 898.419 265.965 886.633 276.897C874.846 287.83 859.384 293.917 843.321 293.949Z" fill="white"/>
<path d="M882.441 244.814L701.263 230.695C700.886 230.665 700.518 230.562 700.18 230.39C699.843 230.218 699.543 229.981 699.296 229.693C699.05 229.405 698.863 229.071 698.746 228.71C698.629 228.35 698.583 227.969 698.613 227.591C698.642 227.213 698.745 226.845 698.917 226.507C699.089 226.168 699.325 225.868 699.613 225.621C699.9 225.374 700.234 225.187 700.594 225.069C700.954 224.952 701.333 224.907 701.711 224.936L882.888 239.056C883.265 239.085 883.633 239.189 883.971 239.361C884.308 239.533 884.609 239.769 884.855 240.058C885.101 240.346 885.288 240.68 885.405 241.04C885.523 241.401 885.568 241.781 885.539 242.159C885.509 242.537 885.406 242.906 885.234 243.244C885.063 243.582 884.826 243.883 884.539 244.13C884.251 244.376 883.918 244.564 883.558 244.681C883.198 244.799 882.818 244.844 882.441 244.814Z" fill="#E6E6E6"/>
<path d="M807.211 250.398L700.38 242.073C700.002 242.043 699.634 241.94 699.296 241.768C698.959 241.596 698.658 241.36 698.412 241.071C698.165 240.783 697.978 240.449 697.861 240.088C697.743 239.728 697.698 239.347 697.727 238.969C697.757 238.591 697.86 238.222 698.032 237.884C698.204 237.545 698.44 237.244 698.728 236.998C699.016 236.751 699.35 236.564 699.71 236.446C700.07 236.329 700.45 236.284 700.827 236.314L807.658 244.639C808.42 244.699 809.128 245.06 809.624 245.642C810.121 246.223 810.367 246.979 810.308 247.743C810.248 248.506 809.889 249.215 809.308 249.713C808.728 250.211 807.973 250.457 807.211 250.398Z" fill="#E6E6E6"/>
<path d="M830.745 263.679L699.496 253.45C698.734 253.391 698.027 253.031 697.529 252.449C697.032 251.867 696.786 251.11 696.846 250.347C696.905 249.583 697.265 248.874 697.846 248.376C698.427 247.878 699.181 247.632 699.944 247.691L831.192 257.92C831.954 257.979 832.662 258.34 833.159 258.922C833.656 259.504 833.902 260.26 833.843 261.023C833.783 261.787 833.424 262.496 832.843 262.994C832.262 263.492 831.507 263.738 830.745 263.679Z" fill="#E6E6E6"/>
<path d="M333.066 262.03C330.259 255.657 328.732 248.793 328.573 241.829C328.414 234.865 329.626 227.937 332.14 221.443C334.653 214.948 338.419 209.012 343.222 203.975C348.025 198.938 353.772 194.898 360.133 192.086C366.495 189.274 373.347 187.745 380.299 187.585C387.251 187.426 394.166 188.64 400.649 191.158C407.132 193.676 413.057 197.448 418.085 202.26C423.114 207.071 427.146 212.828 429.954 219.201L428.226 219.965C425.519 213.819 421.63 208.268 416.781 203.628C411.932 198.988 406.219 195.35 399.967 192.922C393.714 190.494 387.046 189.323 380.342 189.477C373.639 189.631 367.031 191.105 360.896 193.817C354.761 196.529 349.22 200.425 344.588 205.282C339.956 210.139 336.324 215.863 333.901 222.126C331.477 228.389 330.308 235.07 330.462 241.785C330.615 248.501 332.087 255.12 334.794 261.266L333.066 262.03Z" fill="#E6E6E6"/>
<path d="M881.919 557.847C903.539 547.584 919.643 526.935 917.131 504.243C897.735 519.977 871.328 528.763 844.067 528.553C833.449 528.471 821.558 527.389 813.842 533.357C809.041 537.071 806.876 542.968 806.602 548.845C806.328 554.722 807.751 560.67 809.165 566.541L808.735 567.932C834.119 569.551 860.3 568.11 881.919 557.847Z" fill="#F2F2F2"/>
<path d="M916.598 504.187C908.237 520.532 893.739 534.154 875.722 542.128C871.775 543.974 867.571 545.211 863.255 545.798C858.859 546.258 854.416 545.677 850.286 544.1C846.371 542.692 842.511 540.859 838.358 540.302C836.325 540.017 834.255 540.147 832.273 540.682C830.291 541.217 828.437 542.148 826.822 543.417C822.985 546.407 820.696 550.544 818.622 554.67C816.319 559.252 814.011 564.05 809.502 567.173C808.955 567.551 809.716 568.338 810.262 567.96C818.107 562.528 819.24 552.704 825.474 546.123C826.94 544.462 828.763 543.155 830.805 542.3C832.848 541.445 835.057 541.063 837.267 541.185C841.505 541.498 845.487 543.385 849.441 544.84C853.461 546.431 857.774 547.14 862.091 546.92C866.442 546.536 870.704 545.45 874.71 543.705C883.421 540.073 891.485 535.046 898.587 528.822C906.433 522.025 912.91 513.788 917.669 504.555C917.958 503.991 916.885 503.626 916.598 504.187Z" fill="#9B0000"/>
<path d="M881.758 539.825C884.034 542.515 887.09 544.427 890.502 545.296C893.913 546.164 897.51 545.946 900.792 544.672C901.421 544.407 900.907 543.483 900.277 543.748C897.223 544.94 893.874 545.143 890.699 544.329C887.525 543.514 884.685 541.724 882.579 539.208C882.137 538.67 881.319 539.289 881.758 539.825Z" fill="#9B0000"/>
<path d="M852.188 545.04C852.607 541.848 853.696 538.78 855.384 536.039C857.071 533.299 859.319 530.947 861.979 529.139C862.523 528.759 861.763 527.972 861.219 528.352C858.455 530.238 856.121 532.69 854.372 535.546C852.623 538.402 851.497 541.596 851.07 544.919C850.993 545.553 852.111 545.67 852.188 545.04Z" fill="#9B0000"/>
<path d="M905.149 521.331C904.109 520.53 903.291 519.477 902.772 518.271C902.253 517.065 902.049 515.746 902.182 514.439C902.268 513.807 901.149 513.691 901.064 514.318C900.924 515.762 901.15 517.218 901.72 518.552C902.291 519.885 903.188 521.053 904.328 521.947C904.431 522.049 904.565 522.113 904.709 522.128C904.852 522.144 904.997 522.11 905.119 522.033C905.172 521.992 905.215 521.94 905.246 521.881C905.277 521.821 905.294 521.756 905.297 521.689C905.3 521.622 905.288 521.555 905.263 521.493C905.237 521.431 905.198 521.376 905.149 521.331Z" fill="#9B0000"/>
<path d="M845.8 456.265C845.733 456.657 845.666 457.048 845.591 457.444C844.666 462.699 843.253 467.857 841.37 472.849C841.231 473.237 841.084 473.629 840.933 474.012C836.17 486.099 828.928 497.049 819.675 506.156C815.905 509.876 811.839 513.283 807.517 516.342C801.492 520.613 794.539 524.785 790.726 530.539C790.322 531.133 789.96 531.754 789.643 532.398L806.82 567.213C806.902 567.278 806.975 567.346 807.058 567.411L807.675 568.824C807.914 568.68 808.157 568.525 808.396 568.381C808.535 568.297 808.67 568.206 808.809 568.123C808.9 568.065 808.992 568.007 809.078 567.959C809.109 567.94 809.139 567.921 809.161 567.904C809.248 567.857 809.322 567.804 809.4 567.76C810.765 566.899 812.126 566.027 813.481 565.144C813.489 565.141 813.489 565.141 813.494 565.131C823.797 558.382 833.487 550.756 841.448 541.957C841.688 541.692 841.936 541.425 842.168 541.144C845.706 537.19 848.876 532.919 851.636 528.385C853.123 525.919 854.466 523.369 855.66 520.748C858.722 513.977 860.536 506.706 861.015 499.288C861.985 484.428 857.585 469.062 846.645 457.167C846.365 456.863 846.088 456.566 845.8 456.265Z" fill="#F2F2F2"/>
<path d="M845.361 456.502C850.145 474.882 848.496 494.266 840.396 510.761C838.711 514.423 836.39 517.757 833.541 520.607C830.489 523.408 826.738 525.331 822.684 526.17C818.801 527.091 814.673 527.621 811.187 529.391C809.476 530.249 807.993 531.5 806.858 533.042C805.723 534.585 804.968 536.374 804.655 538.264C803.802 542.872 804.884 547.617 806.12 552.238C807.492 557.368 809.007 562.684 807.74 567.768C807.587 568.384 808.688 568.641 808.842 568.026C811.044 559.18 805.254 550.236 805.475 541.288C805.578 537.112 807.097 533.043 810.967 530.73C814.352 528.706 818.608 528.157 822.551 527.255C826.535 526.48 830.269 524.74 833.427 522.187C836.436 519.498 838.905 516.259 840.703 512.645C844.825 504.68 847.474 496.035 848.523 487.125C849.781 476.788 849.064 466.305 846.411 456.236C846.246 455.601 845.196 455.871 845.361 456.502Z" fill="#9B0000"/>
<path d="M843.358 505.547C850.424 507.765 857.92 505.112 860.883 499.378C861.175 498.813 860.166 498.308 859.874 498.873C857.098 504.244 850.161 506.654 843.556 504.581C842.861 504.362 842.667 505.33 843.358 505.547Z" fill="#9B0000"/>
<path d="M824.743 525.941C822.934 523.207 821.699 520.132 821.112 516.905C820.525 513.678 820.598 510.364 821.329 507.167C821.479 506.55 820.378 506.293 820.227 506.909C819.475 510.239 819.406 513.688 820.024 517.046C820.642 520.404 821.935 523.601 823.825 526.443C824.195 527.022 825.111 526.517 824.743 525.941Z" fill="#9B0000"/>
<path d="M848.374 477.227C846.986 477.07 845.65 476.608 844.462 475.875C843.273 475.141 842.26 474.154 841.495 472.984C841.133 472.402 840.217 472.907 840.576 473.486C841.427 474.775 842.547 475.864 843.859 476.677C845.171 477.49 846.644 478.008 848.176 478.193C848.48 478.23 848.764 478.123 848.825 477.839C848.842 477.698 848.805 477.557 848.721 477.443C848.637 477.329 848.513 477.252 848.374 477.227Z" fill="#9B0000"/>
<path d="M882.264 310.651L869.123 240.573L843.327 206.559L824.209 219.08C826.911 233.758 847.345 261.158 847.345 261.158L865.457 315.354C865.384 315.636 865.317 315.92 865.268 316.213C864.981 317.927 865.14 319.687 865.73 321.322C866.32 322.957 867.322 324.412 868.637 325.546C869.952 326.68 871.538 327.455 873.239 327.796C874.941 328.137 876.702 328.033 878.352 327.493C880.001 326.953 881.484 325.996 882.657 324.714C883.829 323.433 884.652 321.87 885.045 320.176C885.439 318.483 885.389 316.717 884.902 315.048C884.415 313.379 883.506 311.865 882.264 310.651Z" fill="#FFB8B8"/>
<path d="M824.723 226.484L846.366 208.886L846.407 208.793C850.456 199.604 841.468 183.847 833.215 172.247C830.49 168.424 826.419 165.78 821.823 164.85C817.227 163.92 812.45 164.772 808.458 167.235C805.525 169.071 803.163 171.693 801.64 174.804C800.116 177.915 799.492 181.391 799.837 184.838L801.658 202.393L824.723 226.484Z" fill="#3F3D56"/>
<path d="M748.23 575.232L733.828 575.231L726.978 519.586L748.232 519.587L748.23 575.232Z" fill="#FFB8B8"/>
<path d="M751.903 570.522L747.849 570.522L732.024 564.074L723.542 570.521H723.541C718.748 570.521 714.151 572.428 710.762 575.824C707.372 579.219 705.468 583.824 705.468 588.626V589.214L751.902 589.216L751.903 570.522Z" fill="#2F2E41"/>
<path d="M812.128 575.232L797.727 575.231L790.877 519.586L812.131 519.587L812.128 575.232Z" fill="#FFB8B8"/>
<path d="M815.802 570.522L811.749 570.522L795.924 564.074L787.442 570.521H787.441C782.647 570.521 778.051 572.428 774.661 575.824C771.272 579.219 769.368 583.824 769.367 588.626V589.214L815.801 589.216L815.802 570.522Z" fill="#2F2E41"/>
<path d="M834.087 335.552C834.087 335.552 835.769 355.766 831.565 375.138C827.361 394.51 827.361 449.069 827.361 449.069L818.112 555.383L790.367 552.856L782.8 375.138L755.895 434.939L758.417 443.362L755.057 445.468C755.057 445.468 757.576 461.892 755.895 461.892C754.213 461.892 750.009 464.418 750.009 464.418L753.372 551.172L724.786 550.329L714.697 428.201L725.627 358.293L726.468 344.817L730.251 344.973L732.178 339.342L735.716 329.656L834.087 335.552Z" fill="#2F2E41"/>
<path d="M835.54 339.798L835.69 339.587C843.693 328.363 831.657 301.392 829.841 297.482L837.487 294.996L835.766 280.334L834.95 273.798L840.794 267.943L840.81 267.797L844.173 238.318L849.063 218.738C850.906 211.336 850.749 203.577 848.608 196.256C846.468 188.935 842.421 182.316 836.884 177.079L825.581 166.403L811.844 146.042H789.693L782.097 160.414C774.734 162.119 768.2 166.358 763.635 172.392C759.071 178.427 756.764 185.874 757.116 193.437L758.838 231.13L752.099 278.062L752.095 286.555L744.511 294.999L746.167 303.293L740.395 305.771L737.847 317.685C736.792 319.079 729.831 328.377 729.831 330.919C729.831 331.301 730.112 331.67 730.715 332.079C735.459 335.297 761.681 341.858 773.287 337.206C785.649 332.254 834.79 339.683 835.285 339.758L835.54 339.798Z" fill="#3F3D56"/>
<path d="M642.907 588.875C642.906 589.172 643.023 589.458 643.232 589.669C643.442 589.88 643.726 589.999 644.024 590H908.65C908.948 590 909.233 589.881 909.444 589.67C909.655 589.459 909.773 589.173 909.773 588.875C909.773 588.576 909.655 588.29 909.444 588.079C909.233 587.868 908.948 587.749 908.65 587.749H644.03C643.733 587.748 643.448 587.866 643.237 588.075C643.027 588.285 642.908 588.57 642.907 588.868V588.875Z" fill="#CCCCCC"/>
<path d="M797.907 139.469C814.11 139.469 827.245 126.312 827.245 110.08C827.245 93.8493 814.11 80.6914 797.907 80.6914C781.705 80.6914 768.57 93.8493 768.57 110.08C768.57 126.312 781.705 139.469 797.907 139.469Z" fill="#FFB8B8"/>
<path d="M795.097 139.945C799.64 139.899 804.171 139.464 808.641 138.644C813.066 137.623 822.828 130.061 825.489 125.593C827.466 122.274 828.652 117.14 829.299 113.418C830.174 108.491 830.005 103.436 828.805 98.5792C827.605 93.7223 825.4 89.1721 822.333 85.2232C821.15 83.5688 819.544 82.2654 817.683 81.4507C817.518 81.391 817.349 81.3388 817.178 81.2948C814.48 80.6578 812.034 79.2277 810.154 77.1879C809.789 76.7749 809.394 76.3889 808.974 76.0327C806.864 74.3407 804.385 73.1728 801.739 72.6245C797.463 71.596 791.348 72.8849 783.562 76.4587C779.65 78.2543 775.309 77.7534 771.962 77.1163C771.775 77.0851 771.582 77.1035 771.404 77.1699C771.226 77.2363 771.068 77.3483 770.946 77.4947C769.565 78.8628 767.718 79.6564 765.776 79.7159C764.588 79.799 763.383 81.4811 761.93 83.6714C761.6 84.1687 761.215 84.749 760.936 85.1031L760.88 84.438L760.227 85.1984C759.199 86.3935 758.491 87.8297 758.166 89.3731C757.842 90.9166 757.913 92.5171 758.372 94.0257C758.832 95.5343 759.665 96.9019 760.794 98.0011C761.923 99.1003 763.312 99.8954 764.83 100.312C766.035 100.6 767.266 100.764 768.504 100.802C769.254 100.85 770.03 100.9 770.776 101.009C773.171 101.436 775.414 102.478 777.287 104.033C779.16 105.588 780.598 107.603 781.461 109.881C781.665 110.407 781.987 110.88 782.402 111.262C782.817 111.644 783.315 111.925 783.855 112.084C784.396 112.243 784.966 112.275 785.522 112.179C786.077 112.082 786.603 111.858 787.058 111.526C787.816 110.903 788.713 110.472 789.672 110.272C790.632 110.071 791.626 110.105 792.569 110.373C793.389 110.802 794.037 111.501 794.404 112.352C794.848 113.3 795.563 114.094 796.459 114.632C799.513 116.111 799.899 123.003 798.964 128.78C798.064 134.349 796.104 138.411 794.199 138.659C792.733 138.849 792.567 138.958 792.468 139.221L792.378 139.457L792.549 139.671C793.369 139.945 794.238 140.038 795.097 139.945Z" fill="#2F2E41"/>
<path d="M472.683 291.43C504.9 291.43 531.017 265.266 531.017 232.992C531.017 200.717 504.9 174.554 472.683 174.554C440.465 174.554 414.348 200.717 414.348 232.992C414.348 265.266 440.465 291.43 472.683 291.43Z" fill="#FF5050"/>
<path d="M788.339 224.295L769.097 211.968C756.844 220.458 740.285 250.368 740.285 250.368L698.374 289.156C696.628 289.456 694.992 290.211 693.63 291.346C692.268 292.481 691.229 293.955 690.617 295.621C690.005 297.286 689.841 299.083 690.143 300.832C690.445 302.581 691.201 304.219 692.335 305.582C693.47 306.945 694.943 307.984 696.606 308.596C698.269 309.207 700.063 309.368 701.809 309.064C703.554 308.76 705.188 308 706.548 306.862C707.907 305.724 708.942 304.247 709.551 302.58L767.96 261.818L788.339 224.295Z" fill="#FFB8B8"/>
<path d="M786.505 229.297L799.321 198.485L794.685 181.457C793.763 178.117 791.927 175.103 789.384 172.754C786.841 170.405 783.694 168.815 780.296 168.164C775.685 167.313 770.923 168.247 766.974 170.779C763.024 173.31 760.181 177.249 759.02 181.8C755.51 195.605 752.815 213.551 759.904 220.653L759.976 220.725L786.505 229.297Z" fill="#3F3D56"/>
<path d="M40.1785 572.171C15.0921 559.272 -3.10863 534.345 0.696603 507.707C22.9591 526.968 53.7398 538.306 85.8618 539.078C98.3729 539.379 112.422 538.549 121.288 545.868C126.806 550.423 129.137 557.451 129.24 564.384C129.344 571.318 127.446 578.272 125.561 585.135L126.016 586.79C96.0521 587.747 65.2649 585.07 40.1785 572.171Z" fill="#F2F2F2"/>
<path d="M1.32586 507.661C10.567 527.228 27.1374 543.819 48.0647 553.886C52.6463 556.208 57.5518 557.822 62.615 558.676C67.7764 559.382 73.0314 558.863 77.9556 557.16C82.6208 555.649 87.2362 553.634 92.1491 553.132C94.5549 552.873 96.9881 553.103 99.3031 553.808C101.618 554.513 103.768 555.678 105.623 557.234C110.032 560.899 112.574 565.858 114.863 570.797C117.406 576.281 119.945 582.02 125.141 585.867C125.771 586.333 124.845 587.232 124.216 586.766C115.176 580.073 114.209 568.457 107.11 560.473C103.797 556.747 99.1239 553.973 93.4013 554.214C88.3971 554.424 83.636 556.498 78.9242 558.064C74.1293 559.787 69.0214 560.461 63.9446 560.04C58.8324 559.425 53.8528 557.987 49.1983 555.782C39.0716 551.177 29.7593 544.954 21.6254 537.356C12.6363 529.055 5.31346 519.11 0.0507968 508.055C-0.268419 507.379 1.00872 506.989 1.32586 507.661Z" fill="#9B0000"/>
<path d="M41.0408 550.947C35.5414 557.231 25.8623 559.355 18.4382 555.944C17.7068 555.608 18.3466 554.54 19.0789 554.876C22.6315 556.394 26.5698 556.758 30.3398 555.918C34.1099 555.077 37.5221 553.074 40.0966 550.19C40.6376 549.572 41.5787 550.332 41.0408 550.947Z" fill="#9B0000"/>
<path d="M75.6806 558.197C75.3062 554.42 74.1378 550.766 72.252 547.474C70.3663 544.183 67.8061 541.328 64.7399 539.099C64.1124 538.631 65.0379 537.732 65.6647 538.2C68.8504 540.526 71.5079 543.501 73.4621 546.931C75.4163 550.36 76.6229 554.166 77.0022 558.097C77.0697 558.845 75.7477 558.942 75.6806 558.197Z" fill="#9B0000"/>
<path d="M14.1744 528.285C15.429 527.381 16.4322 526.171 17.089 524.77C17.7458 523.368 18.0343 521.822 17.9271 520.278C17.8489 519.53 19.171 519.435 19.2487 520.177C19.3594 521.883 19.039 523.59 18.3172 525.14C17.5953 526.689 16.4952 528.031 15.1186 529.042C14.9937 529.158 14.8334 529.228 14.6637 529.241C14.494 529.254 14.325 529.209 14.1841 529.113C14.1233 529.063 14.0741 529 14.04 528.929C14.0059 528.858 13.9878 528.78 13.9869 528.701C13.9859 528.622 14.0022 528.544 14.0346 528.472C14.067 528.4 14.1147 528.337 14.1744 528.285Z" fill="#9B0000"/>
<path d="M86.5154 453.855C86.5793 454.32 86.6432 454.784 86.7169 455.252C87.6108 461.478 89.0836 467.607 91.116 473.558C91.2647 474.021 91.4234 474.487 91.587 474.944C96.747 489.361 104.87 502.533 115.432 513.606C119.734 518.13 124.397 522.296 129.374 526.061C136.312 531.318 144.348 536.493 148.624 543.414C149.079 544.128 149.482 544.873 149.831 545.644L128.299 586.015C128.2 586.088 128.11 586.166 128.011 586.239L127.232 587.881C126.956 587.702 126.674 587.51 126.398 587.331C126.238 587.228 126.082 587.115 125.922 587.012C125.816 586.94 125.711 586.868 125.61 586.809C125.575 586.786 125.54 586.761 125.515 586.741C125.414 586.682 125.329 586.617 125.239 586.562C123.663 585.497 122.093 584.419 120.529 583.328C120.519 583.325 120.519 583.325 120.514 583.312C108.628 574.976 97.4975 565.629 88.4468 554.966C88.1746 554.645 87.8922 554.321 87.6299 553.982C83.6085 549.191 80.0342 544.042 76.9517 538.597C75.2917 535.637 73.8041 532.583 72.4962 529.45C69.1416 521.359 67.2753 512.726 66.9876 503.969C66.3987 486.427 72.1553 468.49 85.4861 454.887C85.8274 454.539 86.1641 454.2 86.5154 453.855Z" fill="#F2F2F2"/>
<path d="M87.0239 454.152C80.7024 475.624 81.9218 498.522 90.8499 518.256C92.6981 522.634 95.308 526.648 98.5579 530.111C102.048 533.526 106.396 535.931 111.14 537.072C115.68 538.302 120.524 539.08 124.564 541.296C126.547 542.371 128.248 543.9 129.528 545.759C130.808 547.618 131.63 549.755 131.928 551.993C132.761 557.454 131.31 563.003 129.682 568.4C127.874 574.392 125.892 580.598 127.194 586.634C127.351 587.366 126.044 587.627 125.887 586.896C123.622 576.394 130.777 566.074 130.85 555.524C130.884 550.602 129.247 545.752 124.773 542.881C120.862 540.371 115.868 539.564 111.256 538.355C106.592 537.293 102.258 535.103 98.633 531.977C95.1892 528.697 92.401 524.789 90.4173 520.464C85.8585 510.927 83.06 500.643 82.1572 490.109C81.0606 477.884 82.2955 465.562 85.796 453.799C86.0143 453.058 87.2408 453.415 87.0239 454.152Z" fill="#9B0000"/>
<path d="M87.5551 512.003C79.1482 514.351 70.4163 510.946 67.1398 504.081C66.817 503.404 68.0243 502.846 68.3476 503.523C71.4171 509.954 79.4994 513.052 87.3579 510.857C88.185 510.626 88.3774 511.774 87.5551 512.003Z" fill="#9B0000"/>
<path d="M108.723 536.724C110.956 533.571 112.527 529.995 113.338 526.215C114.15 522.435 114.187 518.53 113.446 514.735C113.291 514.003 114.598 513.742 114.753 514.473C115.515 518.424 115.468 522.489 114.614 526.422C113.761 530.354 112.118 534.072 109.787 537.349C109.329 538.018 108.268 537.389 108.723 536.724Z" fill="#9B0000"/>
<path d="M82.7024 478.454C84.3427 478.32 85.9335 477.826 87.3615 477.007C88.7895 476.188 90.0195 475.063 90.964 473.713C91.4121 473.04 92.4727 473.67 92.0275 474.338C90.9777 475.825 89.6177 477.066 88.0415 477.975C86.4654 478.884 84.7109 479.438 82.8996 479.6C82.54 479.631 82.2096 479.494 82.1476 479.158C82.1329 478.991 82.1822 478.826 82.2853 478.695C82.3885 478.564 82.5377 478.478 82.7024 478.454Z" fill="#9B0000"/>
<path d="M162.407 251.523L164.297 269.082L163.185 292.105L214.092 286.047L218.876 251.523L212.781 251.583L162.407 251.523Z" fill="#FFB6B6"/>
<path d="M136.003 570.299H147.133L152.43 527.293H136.003V570.299Z" fill="#FFB6B6"/>
<path d="M132.371 562.662L150.152 561.599V569.231L167.058 580.927C167.893 581.505 168.522 582.334 168.852 583.295C169.183 584.256 169.199 585.298 168.897 586.269C168.595 587.239 167.991 588.087 167.174 588.69C166.357 589.292 165.368 589.617 164.354 589.617H143.184L139.535 582.068L138.111 589.617H130.129L132.371 562.662Z" fill="#2F2E41"/>
<path d="M198.521 570.299H209.651L214.948 527.293H198.521V570.299Z" fill="#FFB6B6"/>
<path d="M194.889 562.662L212.671 561.599V569.231L229.576 580.927C230.411 581.505 231.04 582.334 231.371 583.295C231.701 584.256 231.717 585.298 231.415 586.269C231.113 587.239 230.509 588.087 229.692 588.69C228.875 589.292 227.886 589.617 226.872 589.617H205.702L202.053 582.068L200.629 589.617H192.647L194.889 562.662Z" fill="#2F2E41"/>
<path d="M131.201 533.213H131.322L133.463 463.287C132.077 460.61 131.374 457.632 131.416 454.617C131.458 451.603 132.243 448.645 133.702 446.008L134.008 445.453L133.214 441.763C132.193 437.022 132.662 432.081 134.555 427.618L136.551 362.39C129.417 316.074 163.416 285.868 163.416 285.868H214.347L225.281 323.502C232.509 394.051 231.198 462.799 219.727 529.404L220.04 529.563C221.166 529.952 221.649 531.514 221.119 533.053C220.589 534.591 219.246 535.522 218.12 535.133L191.223 534.196C190.097 533.807 189.614 532.244 190.144 530.706C190.674 529.167 192.017 528.236 193.143 528.625L194.972 529.552L191.071 462.076L191.504 449.751L190.612 435.769L186.49 372.877L170.884 450.217L154.944 533.991C155.383 534.39 155.692 534.913 155.829 535.491C155.966 536.069 155.924 536.675 155.71 537.229C155.496 537.783 155.119 538.259 154.629 538.594C154.139 538.929 153.56 539.108 152.966 539.106H131.201C130.814 539.106 130.431 539.031 130.074 538.883C129.716 538.735 129.391 538.518 129.118 538.245C128.844 537.971 128.627 537.646 128.479 537.288C128.331 536.93 128.254 536.547 128.254 536.159C128.254 535.772 128.331 535.388 128.479 535.03C128.627 534.672 128.844 534.347 129.118 534.074C129.391 533.8 129.716 533.583 130.074 533.435C130.431 533.288 130.814 533.212 131.201 533.213Z" fill="#2F2E41"/>
<path d="M171.297 161.676C186.384 161.676 198.614 149.424 198.614 134.31C198.614 119.196 186.384 106.944 171.297 106.944C156.21 106.944 143.979 119.196 143.979 134.31C143.979 149.424 156.21 161.676 171.297 161.676Z" fill="#FFB6B6"/>
<path d="M51.592 260.739C55.4313 251.81 60.7035 243.571 67.1995 236.348C61.6987 245.131 58.555 255.187 58.0728 265.544C60.0644 266.79 62.1481 267.882 64.3059 268.81C70.7906 271.535 77.7047 273.091 84.7296 273.406C88.5158 260.77 95.051 249.13 103.865 239.327C97.513 249.474 94.3187 261.286 94.6887 273.258C102.524 272.579 110.244 270.922 117.669 268.324C128.817 264.482 139.639 258.744 147.348 249.82C155.692 240.16 159.805 227.414 161.132 214.707C162.46 202.011 161.212 189.195 159.953 176.488C159.359 170.432 164.393 163.464 163.798 157.408H163.402C160.756 153.775 158.061 150.052 156.762 145.744C155.474 141.445 155.811 136.372 158.774 132.987C160.434 131.218 162.529 129.918 164.849 129.215C165.067 128.937 165.304 128.669 165.552 128.401C170.039 123.627 175.32 119.67 181.16 116.707C176.948 119.893 174.134 123.497 172.826 127.22C176.472 126.415 180.119 125.615 183.766 124.817C184.985 123.522 186.268 122.29 187.611 121.124C189.563 119.427 190.207 119.298 192.536 117.699C190.656 119.356 189.198 121.439 188.285 123.775C192.972 122.594 197.659 120.817 200.097 116.776C204.14 110.095 199.334 101.081 192.625 97.0907C187.745 94.3291 182.122 93.1738 176.551 93.7884C170.979 94.403 165.742 96.7563 161.578 100.516C151.877 93.3581 138.063 93.4772 127.271 98.828C120.147 102.518 114.01 107.866 109.375 114.424C112.064 114.078 114.77 113.889 117.481 113.858C113.665 114.417 110.032 115.858 106.868 118.067C105.468 120.244 104.184 122.494 103.023 124.807C102.26 126.326 101.54 127.865 100.862 129.423C96.7102 138.894 94.0049 148.98 91.2005 158.947C87.9304 170.561 84.4224 182.255 78.2982 192.649C68.9084 208.453 54.096 220.293 36.6284 225.955C35.1717 239.088 41.5733 251.934 51.592 260.739Z" fill="#2F2E41"/>
<path d="M198.807 179.976L193.505 177.982L186.819 167.153L163.004 169.102L157.216 180.714L143.271 191.382L149.37 223.555L158.844 262.635L222.265 254.694L222.198 225.275C222.198 225.275 233.659 202.032 215.146 193.322L198.807 179.976Z" fill="#FF5050"/>
<path d="M296.564 282.024C295.333 282.519 294.009 282.738 292.684 282.665C291.359 282.592 290.067 282.228 288.897 281.601C287.728 280.973 286.71 280.096 285.916 279.032C285.121 277.967 284.57 276.741 284.299 275.44L213.585 232.576L226.51 217.636L291.956 264.469C294.168 264.158 296.417 264.672 298.276 265.912C300.135 267.152 301.476 269.032 302.044 271.196C302.612 273.36 302.368 275.657 301.358 277.653C300.348 279.649 298.642 281.204 296.564 282.024Z" fill="#FFB6B6"/>
<path d="M190.022 212.249C190.022 212.249 186.642 215.655 195.122 221.256C201.91 225.74 232.19 247.899 242.924 251.403C242.79 252.983 243.184 254.562 244.044 255.893C244.904 257.223 246.182 258.229 247.676 258.752L257.395 237.357C255.291 232.466 251.926 233.598 250.155 234.707L238.418 225.864L209.595 197.032L192.421 209.743L190.022 212.249Z" fill="#FF5050"/>
<path d="M161.752 101.26C158.468 106.114 156.347 111.661 155.553 117.47C154.759 123.28 155.314 129.194 157.175 134.753" fill="#FD6584"/>
<path d="M23.1597 588.875C23.1592 589.023 23.188 589.169 23.2443 589.306C23.3006 589.443 23.3834 589.567 23.4878 589.671C23.5922 589.776 23.7162 589.859 23.8527 589.915C23.9892 589.972 24.1355 590.001 24.2832 590H288.903C289.201 590 289.486 589.881 289.697 589.67C289.908 589.459 290.026 589.173 290.026 588.875C290.026 588.576 289.908 588.29 289.697 588.079C289.486 587.868 289.201 587.749 288.903 587.749H24.2832C24.1355 587.749 23.9893 587.777 23.8527 587.834C23.7162 587.89 23.5922 587.973 23.4878 588.078C23.3834 588.182 23.3006 588.307 23.2443 588.443C23.188 588.58 23.1592 588.727 23.1597 588.875Z" fill="#CCCCCC"/>
<path d="M123.98 333.071C123.321 333.304 122.78 333.789 122.477 334.42C122.175 335.051 122.134 335.777 122.365 336.438L159.232 442.884C159.464 443.545 159.948 444.086 160.578 444.389C161.209 444.693 161.933 444.733 162.593 444.502L377.11 369.104C377.769 368.872 378.31 368.386 378.612 367.755C378.915 367.124 378.956 366.398 378.725 365.737L341.858 259.291C341.626 258.63 341.141 258.089 340.511 257.785C339.881 257.482 339.156 257.442 338.496 257.673L123.98 333.071Z" fill="#E6E6E6"/>
<path d="M178.277 429.14C174.055 429.138 169.937 427.827 166.49 425.387C163.042 422.947 160.433 419.497 159.021 415.511L138.775 358.126C136.971 353.015 137.269 347.396 139.601 342.505C141.934 337.613 146.11 333.85 151.212 332.044L259.631 293.657C279.926 286.496 302.228 287.693 321.644 296.984C341.059 306.275 356.003 322.902 363.196 343.218C364.999 348.329 364.702 353.948 362.37 358.839C360.037 363.73 355.861 367.493 350.759 369.3L185.056 427.97C182.879 428.743 180.586 429.138 178.277 429.14Z" fill="white"/>
<path d="M322.053 316.021L224.973 350.142C223.605 350.623 221.91 349.338 221.187 347.273C220.464 345.208 220.986 343.144 222.354 342.663L319.433 308.542C320.801 308.061 322.496 309.346 323.219 311.411C323.943 313.476 323.421 315.542 322.053 316.021Z" fill="#E6E6E6"/>
<path d="M329.561 337.461L232.482 371.582C231.114 372.063 229.419 370.778 228.696 368.713C227.972 366.648 228.495 364.584 229.863 364.103L326.942 329.982C328.31 329.501 330.005 330.786 330.728 332.851C331.452 334.916 330.929 336.98 329.561 337.461Z" fill="#E6E6E6"/>
<path d="M211.837 361.807C212.88 364.75 213.386 367.856 213.333 370.978C213.312 372.407 213.171 373.831 212.911 375.236C212.084 379.774 210.075 384.014 207.087 387.525C204.099 391.037 200.239 393.696 195.896 395.233C191.554 396.771 186.883 397.132 182.356 396.282C177.83 395.431 173.607 393.398 170.117 390.388C169.764 390.086 169.421 389.774 169.087 389.452C166.236 386.715 164.041 383.367 162.666 379.659C161.291 375.951 160.772 371.979 161.149 368.041C161.525 364.103 162.787 360.302 164.839 356.923C166.891 353.543 169.681 350.673 172.998 348.528C176.316 346.382 180.075 345.017 183.994 344.535C187.914 344.053 191.891 344.467 195.628 345.744C199.365 347.022 202.765 349.131 205.572 351.913C208.379 354.695 210.521 358.077 211.837 361.807Z" fill="#E4E4E4"/>
<path d="M188.27 374.538C191.031 374.538 193.269 372.296 193.269 369.53C193.269 366.764 191.031 364.522 188.27 364.522C185.509 364.522 183.271 366.764 183.271 369.53C183.271 372.296 185.509 374.538 188.27 374.538Z" fill="#FD6584"/>
<path d="M169.087 389.452C170.37 386.469 171.887 381.916 175.401 383.573C177.137 384.327 180.246 386.618 181.508 383.954L191.392 363.227C191.58 362.84 191.842 362.495 192.165 362.212C192.487 361.928 192.863 361.712 193.27 361.576C193.677 361.44 194.107 361.387 194.534 361.42C194.962 361.453 195.379 361.571 195.76 361.768L213.333 370.978C213.312 372.407 213.171 373.831 212.911 375.236L170.116 390.388L169.087 389.452Z" fill="#3F3D56"/>
<path d="M174.188 328.24C172.951 327.759 171.835 327.012 170.918 326.051C170.001 325.091 169.306 323.941 168.881 322.682C168.455 321.423 168.311 320.086 168.457 318.765C168.603 317.444 169.037 316.171 169.727 315.037L147.356 235.328L166.984 233.274L182.802 312.27C184.629 313.559 185.92 315.473 186.431 317.651C186.942 319.829 186.638 322.12 185.576 324.088C184.514 326.057 182.768 327.567 180.67 328.332C178.571 329.097 176.264 329.065 174.188 328.24Z" fill="#FFB6B6"/>
<path d="M144.047 191.573C144.047 191.573 139.256 191.746 141.624 201.64C143.52 209.561 150.483 259.253 155.926 269.161C154.751 270.222 153.961 271.644 153.681 273.205C153.401 274.765 153.647 276.374 154.381 277.778L176.073 268.816C177.875 263.805 176.48 259.256 174.431 258.853L171.896 244.361L168.161 195.745L147.508 191.387L144.047 191.573Z" fill="#FF5050"/>
<path d="M339.455 401.295L309.455 402.54C308.814 402.568 308.175 402.45 307.586 402.195C306.997 401.941 306.473 401.556 306.054 401.069C305.64 400.595 305.339 400.034 305.173 399.427C305.006 398.82 304.979 398.183 305.094 397.564C307.396 384.988 306.725 372.047 303.135 359.778C302.858 358.839 302.914 357.834 303.294 356.932C303.674 356.031 304.355 355.29 305.219 354.835C317.507 348.439 329.021 348.115 339.439 353.87C339.985 354.167 340.459 354.58 340.83 355.079C341.2 355.579 341.457 356.154 341.583 356.764C344.295 370.152 344.945 383.877 343.511 397.462C343.412 398.484 342.946 399.436 342.2 400.141C341.455 400.845 340.479 401.255 339.455 401.295Z" fill="#FF5050"/>
<path d="M338.185 381.625L315.247 382.577C314.964 382.589 314.682 382.545 314.416 382.448C314.15 382.35 313.907 382.202 313.698 382.01C313.49 381.818 313.321 381.587 313.202 381.33C313.083 381.072 313.016 380.794 313.004 380.511C312.993 380.228 313.037 379.945 313.134 379.679C313.232 379.413 313.38 379.168 313.572 378.96C313.764 378.751 313.995 378.583 314.252 378.464C314.508 378.345 314.786 378.278 315.069 378.266L338.007 377.314C338.29 377.303 338.572 377.347 338.837 377.444C339.103 377.542 339.347 377.691 339.555 377.883C339.763 378.074 339.931 378.305 340.05 378.563C340.169 378.82 340.236 379.098 340.248 379.381C340.26 379.664 340.216 379.946 340.118 380.212C340.021 380.478 339.872 380.723 339.681 380.931C339.489 381.139 339.259 381.308 339.002 381.427C338.745 381.546 338.468 381.614 338.185 381.625Z" fill="white"/>
<path d="M337.872 374.066L314.934 375.018C314.363 375.041 313.807 374.837 313.386 374.449C312.966 374.062 312.717 373.523 312.693 372.951C312.67 372.38 312.874 371.822 313.26 371.401C313.647 370.98 314.185 370.73 314.756 370.706L337.694 369.755C338.265 369.731 338.822 369.935 339.242 370.323C339.662 370.71 339.911 371.249 339.935 371.821C339.959 372.393 339.755 372.95 339.368 373.371C338.981 373.792 338.443 374.042 337.872 374.066Z" fill="white"/>
<path d="M888.12 166.204L858.35 162.293C857.713 162.211 857.104 161.985 856.567 161.633C856.03 161.282 855.58 160.813 855.25 160.262C854.923 159.724 854.722 159.119 854.662 158.492C854.601 157.866 854.684 157.233 854.902 156.643C859.317 144.647 860.864 131.781 859.421 119.078C859.308 118.106 859.535 117.125 860.063 116.302C860.592 115.479 861.388 114.865 862.318 114.565C875.517 110.368 886.916 112.02 896.198 119.474C896.685 119.861 897.083 120.349 897.362 120.905C897.642 121.461 897.797 122.071 897.817 122.693C898.204 136.349 896.502 149.983 892.771 163.123C892.499 164.113 891.878 164.971 891.023 165.537C890.168 166.104 889.136 166.341 888.12 166.204Z" fill="#FF5050"/>
<path d="M890.226 146.607L867.463 143.616C867.183 143.579 866.913 143.487 866.668 143.346C866.423 143.204 866.208 143.016 866.036 142.791C865.863 142.567 865.737 142.31 865.664 142.036C865.59 141.763 865.571 141.477 865.608 141.197C865.645 140.916 865.737 140.645 865.878 140.399C866.019 140.154 866.207 139.939 866.432 139.766C866.656 139.594 866.912 139.467 867.185 139.393C867.458 139.32 867.743 139.301 868.023 139.338L890.786 142.329C891.353 142.403 891.866 142.7 892.214 143.154C892.562 143.608 892.716 144.181 892.642 144.748C892.567 145.316 892.271 145.83 891.818 146.179C891.365 146.527 890.793 146.681 890.226 146.607Z" fill="white"/>
<path d="M891.209 139.105L868.445 136.114C868.165 136.078 867.894 135.986 867.648 135.845C867.403 135.704 867.188 135.515 867.015 135.291C866.842 135.066 866.715 134.809 866.642 134.535C866.568 134.261 866.549 133.975 866.586 133.694C866.623 133.413 866.715 133.142 866.856 132.896C866.998 132.65 867.187 132.435 867.411 132.263C867.636 132.09 867.893 131.963 868.166 131.89C868.44 131.817 868.725 131.799 869.006 131.836L891.769 134.827C892.049 134.863 892.32 134.955 892.566 135.096C892.811 135.238 893.027 135.426 893.199 135.651C893.372 135.876 893.499 136.132 893.572 136.406C893.646 136.68 893.665 136.966 893.628 137.247C893.591 137.528 893.499 137.8 893.358 138.045C893.216 138.291 893.028 138.506 892.803 138.679C892.578 138.851 892.322 138.978 892.048 139.051C891.775 139.124 891.489 139.143 891.209 139.105Z" fill="white"/>
<path d="M491.565 224.007H481.652V214.077C481.652 211.694 480.707 209.408 479.025 207.723C477.343 206.038 475.061 205.092 472.683 205.092C470.304 205.092 468.023 206.038 466.341 207.723C464.659 209.408 463.714 211.694 463.714 214.077V224.007H453.801C451.422 224.007 449.141 224.954 447.459 226.639C445.777 228.324 444.832 230.609 444.832 232.992C444.832 235.375 445.777 237.66 447.459 239.345C449.141 241.03 451.422 241.977 453.801 241.977H463.714V251.907C463.714 254.29 464.659 256.575 466.341 258.26C468.023 259.945 470.304 260.892 472.683 260.892C475.061 260.892 477.343 259.945 479.025 258.26C480.707 256.575 481.652 254.29 481.652 251.907V241.977H491.565C493.943 241.977 496.225 241.03 497.907 239.345C499.589 237.66 500.533 235.375 500.533 232.992C500.533 230.609 499.589 228.324 497.907 226.639C496.225 224.954 493.943 224.007 491.565 224.007Z" fill="white"/>
<path d="M812.588 40.2278C817.809 40.2278 822.04 35.9886 822.04 30.7593C822.04 25.5301 817.809 21.2909 812.588 21.2909C807.368 21.2909 803.137 25.5301 803.137 30.7593C803.137 35.9886 807.368 40.2278 812.588 40.2278Z" fill="#3F3D56"/>
<path d="M231.972 307.878C237.192 307.878 241.424 303.639 241.424 298.41C241.424 293.181 237.192 288.941 231.972 288.941C226.752 288.941 222.521 293.181 222.521 298.41C222.521 303.639 226.752 307.878 231.972 307.878Z" fill="#3F3D56"/>
</g>
<defs>
<clipPath id="clip0_147_178">
<rect width="934" height="590" fill="white"/>
</clipPath>
</defs>
</svg>
