<svg width="40" height="40" viewBox="0 0 40 40" fill="none" xmlns="http://www.w3.org/2000/svg">
<rect width="40" height="40" rx="7" fill="#9B0000"/>
<path d="M8.83 14.3875C9.87001 12.3166 11.4655 10.5756 13.438 9.35934C15.4106 8.14303 17.6826 7.49927 20 7.5C23.3688 7.5 26.1988 8.7375 28.3625 10.7563L24.7788 14.3413C23.4825 13.1025 21.835 12.4713 20 12.4713C16.7438 12.4713 13.9875 14.6713 13.0063 17.625C12.7563 18.375 12.6138 19.175 12.6138 20C12.6138 20.825 12.7563 21.625 13.0063 22.375C13.9888 25.33 16.7438 27.5288 20 27.5288C21.6813 27.5288 23.1125 27.085 24.2325 26.335C24.8818 25.9075 25.4377 25.3528 25.8665 24.7044C26.2953 24.056 26.5882 23.3273 26.7275 22.5625H20V17.7275H31.7725C31.92 18.545 32 19.3975 32 20.2838C32 24.0913 30.6375 27.2963 28.2725 29.4713C26.205 31.3813 23.375 32.5 20 32.5C18.3583 32.5007 16.7325 32.1778 15.2157 31.5498C13.6988 30.9219 12.3206 30.0012 11.1597 28.8403C9.99884 27.6794 9.07812 26.3012 8.45017 24.7843C7.82222 23.2675 7.49934 21.6417 7.5 20C7.5 17.9825 7.9825 16.075 8.83 14.3875Z" fill="#E9EAEC"/>
</svg>
