<svg width="60" height="60" viewBox="0 0 60 60" fill="none" xmlns="http://www.w3.org/2000/svg">
<path d="M31.5 36C32.6935 36 33.8381 36.4741 34.682 37.318C35.5259 38.1619 36 39.3065 36 40.5V42C36 47.913 30.42 54 21 54C11.58 54 6 47.913 6 42V40.5C6 39.3065 6.47411 38.1619 7.31802 37.318C8.16193 36.4741 9.30653 36 10.5 36H31.5ZM31.5 39H10.5C10.1022 39 9.72064 39.158 9.43934 39.4393C9.15804 39.7206 9 40.1022 9 40.5V42C9 46.314 13.296 51 21 51C28.704 51 33 46.314 33 42V40.5C33 40.1022 32.842 39.7206 32.5607 39.4393C32.2794 39.158 31.8978 39 31.5 39ZM21 16.5C23.188 16.5 25.2865 17.3692 26.8336 18.9164C28.3808 20.4635 29.25 22.562 29.25 24.75C29.25 26.938 28.3808 29.0365 26.8336 30.5836C25.2865 32.1308 23.188 33 21 33C18.812 33 16.7135 32.1308 15.1664 30.5836C13.6192 29.0365 12.75 26.938 12.75 24.75C12.75 22.562 13.6192 20.4635 15.1664 18.9164C16.7135 17.3692 18.812 16.5 21 16.5ZM48 6C49.5132 6.00028 50.9704 6.57231 52.0797 7.60151C53.1891 8.63071 53.8685 10.0411 53.982 11.55L54 12V18C54.0005 19.5137 53.4288 20.9717 52.3995 22.0816C51.3702 23.1916 49.9595 23.8715 48.45 23.985L48 24H43.497L39.903 28.8C38.313 30.918 35.091 30.06 34.572 27.672L34.521 27.339L34.5 27V23.805L34.266 23.745C33.1877 23.4183 32.2229 22.795 31.4819 21.9463C30.7408 21.0975 30.2533 20.0575 30.075 18.945L30.015 18.447L30 18V12C29.9995 10.4863 30.5712 9.0283 31.6005 7.91836C32.6298 6.80841 34.0405 6.12853 35.55 6.015L36 6H48ZM21 19.5C20.3106 19.5 19.6279 19.6358 18.9909 19.8996C18.354 20.1635 17.7752 20.5502 17.2877 21.0377C16.8002 21.5252 16.4135 22.104 16.1496 22.7409C15.8858 23.3779 15.75 24.0606 15.75 24.75C15.75 25.4394 15.8858 26.1221 16.1496 26.7591C16.4135 27.396 16.8002 27.9748 17.2877 28.4623C17.7752 28.9498 18.354 29.3365 18.9909 29.6004C19.6279 29.8642 20.3106 30 21 30C22.3924 30 23.7277 29.4469 24.7123 28.4623C25.6969 27.4777 26.25 26.1424 26.25 24.75C26.25 23.3576 25.6969 22.0223 24.7123 21.0377C23.7277 20.0531 22.3924 19.5 21 19.5ZM48 9H36C35.2652 9.0001 34.556 9.26987 34.0069 9.75815C33.4578 10.2464 33.107 10.9192 33.021 11.649L33 12V18C33.0001 18.7348 33.2699 19.444 33.7581 19.9931C34.2464 20.5422 34.9192 20.893 35.649 20.979L36 21H37.5V27L42 21H48C48.7348 20.9999 49.444 20.7301 49.9931 20.2419C50.5422 19.7536 50.893 19.0808 50.979 18.351L51 18V12C50.9999 11.2652 50.7301 10.556 50.2419 10.0069C49.7536 9.45778 49.0808 9.10697 48.351 9.021L48 9Z" fill="#9B0000"/>
</svg>
