<svg width="60" height="60" viewBox="0 0 60 60" fill="none" xmlns="http://www.w3.org/2000/svg">
<path fill-rule="evenodd" clip-rule="evenodd" d="M19 0C19.5304 0 20.0391 0.210714 20.4142 0.585786C20.7893 0.960859 21 1.46957 21 2V4H41V2C41 1.46957 41.2107 0.960859 41.5858 0.585786C41.9609 0.210714 42.4696 0 43 0C43.5304 0 44.0391 0.210714 44.4142 0.585786C44.7893 0.960859 45 1.46957 45 2V4H51C52.5913 4 54.1174 4.63214 55.2426 5.75736C56.3679 6.88258 57 8.4087 57 10V46C57 47.5913 56.3679 49.1174 55.2426 50.2426C54.1174 51.3679 52.5913 52 51 52H11C9.4087 52 7.88258 51.3679 6.75736 50.2426C5.63214 49.1174 5 47.5913 5 46V10C5 8.4087 5.63214 6.88258 6.75736 5.75736C7.88258 4.63214 9.4087 4 11 4H17V2C17 1.46957 17.2107 0.960859 17.5858 0.585786C17.9609 0.210714 18.4696 0 19 0ZM41 8V10C41 10.5304 41.2107 11.0391 41.5858 11.4142C41.9609 11.7893 42.4696 12 43 12C43.5304 12 44.0391 11.7893 44.4142 11.4142C44.7893 11.0391 45 10.5304 45 10V8H51C51.5304 8 52.0391 8.21071 52.4142 8.58579C52.7893 8.96086 53 9.46957 53 10V16H9V10C9 9.46957 9.21071 8.96086 9.58579 8.58579C9.96086 8.21071 10.4696 8 11 8H17V10C17 10.5304 17.2107 11.0391 17.5858 11.4142C17.9609 11.7893 18.4696 12 19 12C19.5304 12 20.0391 11.7893 20.4142 11.4142C20.7893 11.0391 21 10.5304 21 10V8H41ZM9 20V46C9 46.5304 9.21071 47.0391 9.58579 47.4142C9.96086 47.7893 10.4696 48 11 48H51C51.5304 48 52.0391 47.7893 52.4142 47.4142C52.7893 47.0391 53 46.5304 53 46V20H9ZM29 26C29 25.4696 29.2107 24.9609 29.5858 24.5858C29.9609 24.2107 30.4696 24 31 24C31.5304 24 32.0391 24.2107 32.4142 24.5858C32.7893 24.9609 33 25.4696 33 26C33 26.5304 32.7893 27.0391 32.4142 27.4142C32.0391 27.7893 31.5304 28 31 28C30.4696 28 29.9609 27.7893 29.5858 27.4142C29.2107 27.0391 29 26.5304 29 26ZM39 24C38.4696 24 37.9609 24.2107 37.5858 24.5858C37.2107 24.9609 37 25.4696 37 26C37 26.5304 37.2107 27.0391 37.5858 27.4142C37.9609 27.7893 38.4696 28 39 28C39.5304 28 40.0391 27.7893 40.4142 27.4142C40.7893 27.0391 41 26.5304 41 26C41 25.4696 40.7893 24.9609 40.4142 24.5858C40.0391 24.2107 39.5304 24 39 24ZM45 26C45 25.4696 45.2107 24.9609 45.5858 24.5858C45.9609 24.2107 46.4696 24 47 24C47.5304 24 48.0391 24.2107 48.4142 24.5858C48.7893 24.9609 49 25.4696 49 26C49 26.5304 48.7893 27.0391 48.4142 27.4142C48.0391 27.7893 47.5304 28 47 28C46.4696 28 45.9609 27.7893 45.5858 27.4142C45.2107 27.0391 45 26.5304 45 26ZM47 32C46.4696 32 45.9609 32.2107 45.5858 32.5858C45.2107 32.9609 45 33.4696 45 34C45 34.5304 45.2107 35.0391 45.5858 35.4142C45.9609 35.7893 46.4696 36 47 36C47.5304 36 48.0391 35.7893 48.4142 35.4142C48.7893 35.0391 49 34.5304 49 34C49 33.4696 48.7893 32.9609 48.4142 32.5858C48.0391 32.2107 47.5304 32 47 32ZM37 34C37 33.4696 37.2107 32.9609 37.5858 32.5858C37.9609 32.2107 38.4696 32 39 32C39.5304 32 40.0391 32.2107 40.4142 32.5858C40.7893 32.9609 41 33.4696 41 34C41 34.5304 40.7893 35.0391 40.4142 35.4142C40.0391 35.7893 39.5304 36 39 36C38.4696 36 37.9609 35.7893 37.5858 35.4142C37.2107 35.0391 37 34.5304 37 34ZM31 32C30.4696 32 29.9609 32.2107 29.5858 32.5858C29.2107 32.9609 29 33.4696 29 34C29 34.5304 29.2107 35.0391 29.5858 35.4142C29.9609 35.7893 30.4696 36 31 36C31.5304 36 32.0391 35.7893 32.4142 35.4142C32.7893 35.0391 33 34.5304 33 34C33 33.4696 32.7893 32.9609 32.4142 32.5858C32.0391 32.2107 31.5304 32 31 32ZM21 34C21 33.4696 21.2107 32.9609 21.5858 32.5858C21.9609 32.2107 22.4696 32 23 32C23.5304 32 24.0391 32.2107 24.4142 32.5858C24.7893 32.9609 25 33.4696 25 34C25 34.5304 24.7893 35.0391 24.4142 35.4142C24.0391 35.7893 23.5304 36 23 36C22.4696 36 21.9609 35.7893 21.5858 35.4142C21.2107 35.0391 21 34.5304 21 34ZM15 32C14.4696 32 13.9609 32.2107 13.5858 32.5858C13.2107 32.9609 13 33.4696 13 34C13 34.5304 13.2107 35.0391 13.5858 35.4142C13.9609 35.7893 14.4696 36 15 36C15.5304 36 16.0391 35.7893 16.4142 35.4142C16.7893 35.0391 17 34.5304 17 34C17 33.4696 16.7893 32.9609 16.4142 32.5858C16.0391 32.2107 15.5304 32 15 32ZM13 42C13 41.4696 13.2107 40.9609 13.5858 40.5858C13.9609 40.2107 14.4696 40 15 40C15.5304 40 16.0391 40.2107 16.4142 40.5858C16.7893 40.9609 17 41.4696 17 42C17 42.5304 16.7893 43.0391 16.4142 43.4142C16.0391 43.7893 15.5304 44 15 44C14.4696 44 13.9609 43.7893 13.5858 43.4142C13.2107 43.0391 13 42.5304 13 42ZM23 40C22.4696 40 21.9609 40.2107 21.5858 40.5858C21.2107 40.9609 21 41.4696 21 42C21 42.5304 21.2107 43.0391 21.5858 43.4142C21.9609 43.7893 22.4696 44 23 44C23.5304 44 24.0391 43.7893 24.4142 43.4142C24.7893 43.0391 25 42.5304 25 42C25 41.4696 24.7893 40.9609 24.4142 40.5858C24.0391 40.2107 23.5304 40 23 40ZM29 42C29 41.4696 29.2107 40.9609 29.5858 40.5858C29.9609 40.2107 30.4696 40 31 40C31.5304 40 32.0391 40.2107 32.4142 40.5858C32.7893 40.9609 33 41.4696 33 42C33 42.5304 32.7893 43.0391 32.4142 43.4142C32.0391 43.7893 31.5304 44 31 44C30.4696 44 29.9609 43.7893 29.5858 43.4142C29.2107 43.0391 29 42.5304 29 42ZM39 40C38.4696 40 37.9609 40.2107 37.5858 40.5858C37.2107 40.9609 37 41.4696 37 42C37 42.5304 37.2107 43.0391 37.5858 43.4142C37.9609 43.7893 38.4696 44 39 44C39.5304 44 40.0391 43.7893 40.4142 43.4142C40.7893 43.0391 41 42.5304 41 42C41 41.4696 40.7893 40.9609 40.4142 40.5858C40.0391 40.2107 39.5304 40 39 40Z" fill="#E9EAEC"/>
</svg>
