<svg width="35" height="60" viewBox="0 0 35 60" fill="none" xmlns="http://www.w3.org/2000/svg">
<g clip-path="url(#clip0_147_6)">
<path d="M17.8175 39.02C21.2714 39.0161 24.5827 37.6422 27.025 35.2C29.4673 32.7577 30.8411 29.4464 30.845 25.9925V14.7775H4.79004V25.9925C4.79467 29.4458 6.16835 32.7563 8.60993 35.1984C11.0515 37.6404 14.3643 39.0147 17.8175 39.02ZM6.43504 16.2675H11.035V17.2825H6.43504V16.2675ZM6.43504 19.955H11.035V20.97H6.43504V19.955ZM6.43504 23.625H11.035V24.64H6.43504V23.625ZM6.43504 27.3125H11.035V28.3275H6.43504V27.3125Z" fill="#9B0000"/>
<path d="M32.445 0.000119629H0V26.0001C0.00520824 30.1189 1.43425 34.1093 4.04496 37.295C6.65567 40.4807 10.2875 42.6658 14.325 43.4801L14.44 43.5001V44.1751C14.44 44.7001 15.0075 45.1126 15.715 45.1126H16.79V48.7526H16.3875C16.2047 48.7533 16.0296 48.8262 15.9003 48.9554C15.7711 49.0847 15.6982 49.2598 15.6975 49.4426V54.8226C15.6975 55.2026 16.005 55.5076 16.3825 55.5076H16.7875V60.0001H18.8625V55.5151H19.2675C19.4503 55.5145 19.6254 55.4416 19.7547 55.3123C19.8839 55.183 19.9568 55.0079 19.9575 54.8251V49.4376C19.9568 49.2548 19.8839 49.0797 19.7547 48.9504C19.6254 48.8212 19.4503 48.7483 19.2675 48.7476H18.8625V45.1076H19.9375C20.6525 45.1076 21.215 44.6926 21.215 44.1701V43.4951C29.4925 41.8426 35.645 34.6401 35.655 25.9976V-0.00238037L35 -0.00187025L32.445 0.000119629ZM32.445 26.0001C32.3755 29.8321 30.8047 33.4838 28.0706 36.1696C25.3366 38.8554 21.6575 40.3609 17.8249 40.3622C13.9923 40.3635 10.3122 38.8606 7.57631 36.1766C4.84039 33.4926 3.26715 29.8421 3.195 26.0101V3.20012H32.445V26.0001Z" fill="#9B0000"/>
<path d="M6.4375 5.22498H11.03V6.23998H6.4375V5.22498ZM6.4375 8.90998H11.03V9.92498H6.4375V8.90998ZM6.4375 12.5975H11.03V13.6125H6.4375V12.5975Z" fill="#9B0000"/>
</g>
<defs>
<clipPath id="clip0_147_6">
<rect width="35" height="60" fill="white"/>
</clipPath>
</defs>
</svg>
