<svg width="22" height="22" viewBox="0 0 26 26" fill="none" xmlns="http://www.w3.org/2000/svg">
<path fill-rule="evenodd" clip-rule="evenodd" d="M8.08712 1.15481C9.35787 1.09631 9.76304 1.08331 13 1.08331C16.237 1.08331 16.6422 1.0974 17.9119 1.15481C19.1815 1.21223 20.0482 1.41481 20.8065 1.7084C21.6006 2.00848 22.321 2.47756 22.9169 3.08423C23.5235 3.67898 23.9915 4.39831 24.2905 5.19348C24.5852 5.95181 24.7867 6.81848 24.8452 8.08598C24.9037 9.3589 24.9167 9.76406 24.9167 13C24.9167 16.237 24.9026 16.6421 24.8452 17.9129C24.7878 19.1804 24.5852 20.0471 24.2905 20.8054C23.9915 21.6007 23.5228 22.3212 22.9169 22.9168C22.321 23.5235 21.6006 23.9915 20.8065 24.2905C20.0482 24.5851 19.1815 24.7866 17.914 24.8451C16.6422 24.9036 16.237 24.9166 13 24.9166C9.76304 24.9166 9.35787 24.9026 8.08712 24.8451C6.81962 24.7877 5.95296 24.5851 5.19462 24.2905C4.39937 23.9914 3.67885 23.5227 3.08321 22.9168C2.47695 22.3217 2.0078 21.6015 1.70846 20.8065C1.41487 20.0481 1.21337 19.1815 1.15487 17.914C1.09637 16.6411 1.08337 16.2359 1.08337 13C1.08337 9.76298 1.09746 9.35781 1.15487 8.08815C1.21229 6.81848 1.41487 5.95181 1.70846 5.19348C2.00824 4.3984 2.47775 3.67824 3.08429 3.08315C3.67908 2.47702 4.39889 2.00788 5.19354 1.7084C5.95187 1.41481 6.81854 1.21331 8.08604 1.15481H8.08712ZM17.8155 3.29981C16.5588 3.2424 16.1818 3.23048 13 3.23048C9.81829 3.23048 9.44129 3.2424 8.18462 3.29981C7.02221 3.3529 6.39171 3.54681 5.97137 3.7104C5.41562 3.92706 5.01804 4.18381 4.60096 4.6009C4.20559 4.98554 3.90132 5.45379 3.71046 5.97131C3.54687 6.39165 3.35296 7.02215 3.29987 8.18456C3.24246 9.44123 3.23054 9.81823 3.23054 13C3.23054 16.1817 3.24246 16.5587 3.29987 17.8154C3.35296 18.9778 3.54687 19.6083 3.71046 20.0286C3.90112 20.5454 4.20554 21.0145 4.60096 21.3991C4.98554 21.7945 5.45462 22.0989 5.97137 22.2896C6.39171 22.4531 7.02221 22.6471 8.18462 22.7001C9.44129 22.7576 9.81721 22.7695 13 22.7695C16.1829 22.7695 16.5588 22.7576 17.8155 22.7001C18.9779 22.6471 19.6084 22.4531 20.0287 22.2896C20.5845 22.0729 20.982 21.8161 21.3991 21.3991C21.7945 21.0145 22.099 20.5454 22.2896 20.0286C22.4532 19.6083 22.6471 18.9778 22.7002 17.8154C22.7576 16.5587 22.7695 16.1817 22.7695 13C22.7695 9.81823 22.7576 9.44123 22.7002 8.18456C22.6471 7.02215 22.4532 6.39165 22.2896 5.97131C22.073 5.41556 21.8162 5.01798 21.3991 4.6009C21.0145 4.20556 20.5462 3.90129 20.0287 3.7104C19.6084 3.54681 18.9779 3.3529 17.8155 3.29981V3.29981ZM11.478 16.6736C12.328 17.0274 13.2745 17.0752 14.1559 16.8087C15.0372 16.5422 15.7987 15.978 16.3103 15.2124C16.8219 14.4468 17.0518 13.5274 16.9608 12.6112C16.8697 11.6949 16.4635 10.8387 15.8113 10.1887C15.3955 9.77325 14.8929 9.45511 14.3394 9.25722C13.7859 9.05934 13.1955 8.98662 12.6106 9.04431C12.0256 9.10201 11.4608 9.28867 10.9567 9.59087C10.4525 9.89307 10.0217 10.3033 9.69512 10.792C9.36856 11.2807 9.15441 11.8357 9.0681 12.4171C8.98179 12.9985 9.02545 13.5918 9.19596 14.1543C9.36646 14.7168 9.65956 15.2345 10.0542 15.6701C10.4487 16.1057 10.935 16.4484 11.478 16.6736ZM8.66887 8.66881C9.23765 8.10004 9.91289 7.64886 10.656 7.34104C11.3992 7.03322 12.1957 6.87479 13 6.87478C13.8044 6.87478 14.6009 7.03322 15.3441 7.34104C16.0872 7.64886 16.7624 8.10004 17.3312 8.66881C17.9 9.23759 18.3512 9.91283 18.659 10.656C18.9668 11.3991 19.1252 12.1956 19.1252 13C19.1252 13.8044 18.9668 14.6008 18.659 15.344C18.3512 16.0871 17.9 16.7624 17.3312 17.3311C16.1825 18.4798 14.6245 19.1252 13 19.1252C11.3755 19.1252 9.81757 18.4798 8.66887 17.3311C7.52018 16.1825 6.87485 14.6245 6.87485 13C6.87485 11.3755 7.52018 9.81751 8.66887 8.66881V8.66881ZM20.4837 7.78698C20.6247 7.65402 20.7375 7.49413 20.8155 7.31679C20.8936 7.13944 20.9353 6.94823 20.9381 6.75449C20.9409 6.56075 20.9048 6.36841 20.832 6.18886C20.7591 6.00931 20.651 5.8462 20.514 5.70919C20.377 5.57218 20.2139 5.46405 20.0343 5.39121C19.8548 5.31836 19.6624 5.28229 19.4687 5.28511C19.275 5.28794 19.0838 5.3296 18.9064 5.40765C18.7291 5.4857 18.5692 5.59853 18.4362 5.73948C18.1776 6.01359 18.0361 6.37769 18.0416 6.75449C18.047 7.13128 18.1992 7.4911 18.4656 7.75756C18.7321 8.02402 19.0919 8.17614 19.4687 8.18164C19.8455 8.18713 20.2096 8.04556 20.4837 7.78698V7.78698Z" fill="#F5F5F5"/>
</svg>
