<svg width="22" height="22" viewBox="0 0 26 26" fill="none" xmlns="http://www.w3.org/2000/svg">
<path fill-rule="evenodd" clip-rule="evenodd" d="M10.2147 9.71644H14.2382V11.7206C14.8178 10.5679 16.3041 9.53227 18.5369 9.53227C22.8171 9.53227 23.8333 11.8268 23.8333 16.0366V23.8334H19.5V16.9954C19.5 14.5979 18.9204 13.2459 17.4449 13.2459C15.3985 13.2459 14.548 14.703 14.548 16.9943V23.8334H10.2147V9.71644V9.71644ZM2.78413 23.6492H7.11746V9.53227H2.78413V23.6492V23.6492ZM7.73821 4.92919C7.73837 5.2924 7.66634 5.65202 7.5263 5.98716C7.38625 6.32229 7.181 6.62624 6.92246 6.88135C6.39856 7.40203 5.68942 7.69348 4.95079 7.69169C4.21346 7.69119 3.50596 7.40049 2.98129 6.88244C2.72369 6.62646 2.51913 6.32216 2.37933 5.98699C2.23954 5.65181 2.16725 5.29235 2.16663 4.92919C2.16663 4.19577 2.45913 3.49377 2.98238 2.97594C3.50658 2.45719 4.21439 2.16636 4.95188 2.16669C5.69071 2.16669 6.39921 2.4581 6.92246 2.97594C7.44463 3.49377 7.73821 4.19577 7.73821 4.92919Z" fill="#F5F5F5"/>
</svg>
