<svg width="240" height="240" viewBox="0 0 240 240" fill="none" xmlns="http://www.w3.org/2000/svg">
<path d="M67.1016 39.1522C58.3453 40.0855 51.0226 46.3075 47.923 55.485C46.9932 58.3238 46.8382 59.3348 46.8382 63.0292C46.8382 68.2012 47.6906 71.74 50.209 76.9898C55.5557 88.1116 66.7141 100.167 83.1805 112.572C88.9922 116.966 89.5346 117.277 91.0457 117.277C93.0216 117.277 105.885 107.4 113.479 100.05C125.257 88.656 131.805 79.0897 134.13 69.99C135.059 66.3346 135.176 60.5015 134.323 57.196C131.611 46.502 122.584 39.0745 112.278 39.0745C108.171 39.0356 105.807 39.5411 102.437 41.1355C99.9569 42.3021 94.7651 45.9964 93.0991 47.8241C91.6268 49.4185 90.232 49.1852 87.6749 46.9686C80.2747 40.5133 74.5792 38.3745 67.1016 39.1522ZM93.719 60.8903C95.8887 62.2125 96.3149 63.3014 96.5474 68.0456L96.7411 72.3622L101.042 72.5566C104.219 72.7121 105.575 72.9066 106.35 73.451C108.791 75.0454 109.488 78.0397 108.093 80.6841C106.737 83.2507 105.342 83.834 100.538 83.834H96.5474V87.7616C96.5474 92.2726 96.0049 93.9058 94.0677 95.0725C92.053 96.278 90.5807 96.4335 88.6435 95.5391C85.8926 94.3336 85.3115 93.0503 85.3115 87.9949V83.834H81.3595C75.6253 83.834 73.4557 82.5118 73.0295 78.7008C72.797 76.7564 73.4169 75.2398 75.0442 73.7232C75.974 72.8288 76.439 72.751 80.5846 72.5566L85.1177 72.3622L85.3115 67.8512C85.4664 64.0402 85.6214 63.1458 86.2801 62.4458C88.3335 60.1126 91.3944 59.4515 93.719 60.8903Z" fill="#9B0000"/>
<path d="M85.8929 127.038C85.5055 128.827 83.452 131.16 81.3598 132.21L79.3451 133.221H63.4599C54.2 133.221 46.4898 133.416 45.0175 133.649C38.3535 134.738 32.6968 139.638 30.6046 146.171C29.6359 149.204 29.2098 158.692 29.8684 163.553C30.8758 171.331 36.0675 177.32 43.5065 179.303C44.785 179.653 47.4972 179.886 50.558 179.886H55.4785V175.453V171.02L50.7517 170.864C45.095 170.631 43.3515 170.048 41.2206 167.598C39.1283 165.226 38.8184 163.826 38.8184 156.32C38.8184 150.215 38.8959 149.593 39.7483 147.804C40.8331 145.471 41.918 144.421 44.2426 143.371C45.9086 142.593 46.7223 142.554 62.375 142.554C80.7787 142.554 82.3672 142.399 86.3579 139.988C89.2637 138.199 90.5035 137.032 92.3245 134.271C93.7193 132.132 94.6492 129.76 95.1916 127.194L95.3853 126.027H90.736H86.0867L85.8929 127.038Z" fill="#9B0000"/>
<path d="M185.273 136.216C185.273 136.41 185.66 137.616 186.086 138.86C186.784 140.766 186.861 141.777 186.706 144.577L186.551 147.999H193.293C200.848 147.999 202.01 147.726 203.599 145.51C204.761 143.838 204.8 140.377 203.637 138.782C201.855 136.371 200.925 136.138 192.75 136.021C188.605 135.944 185.273 136.021 185.273 136.216Z" fill="#9B0000"/>
<path d="M144.281 136.954C141.646 137.654 137.036 139.793 134.633 141.387C133.626 142.087 130.681 144.81 128.124 147.415C124.947 150.682 122.816 152.509 121.383 153.209C117.315 155.309 116.23 155.387 90.1935 155.387H66.2494V155.387C64.7943 155.387 63.6147 156.576 63.6147 158.031V158.031V164.487V170.942H84.5755H105.536L106.854 172.264C107.938 173.353 108.171 173.859 108.171 175.297C108.171 176.231 107.9 177.397 107.551 177.864C106.156 179.886 106.311 179.886 84.1493 179.886H63.6147V186.108C63.6147 191.358 63.731 192.525 64.2734 193.38C65.6295 195.441 65.4357 195.441 92.6344 195.441C124.056 195.441 125.412 195.597 138.779 200.108C147.38 202.985 151.41 203.685 161.173 203.919C165.668 203.996 169.387 204.035 169.387 203.957C169.387 203.88 169.116 202.946 168.806 201.896C167.644 198.008 168.302 194.158 170.782 190.658L172.099 188.83L170.782 186.964C167.411 182.258 167.411 176.308 170.743 171.953L172.099 170.164L170.588 168.025C168.729 165.381 168.031 162.737 168.341 159.431L168.574 156.942H161.638H154.664L154.432 157.992C152.417 167.248 149.356 173.314 144.397 177.864C141.724 180.314 138.392 182.219 136.764 182.219C136.106 182.219 135.408 181.792 134.75 181.014C132.89 178.836 133.549 177.281 137.191 175.025C141.259 172.575 144.281 168.531 146.257 162.892C147.342 159.898 148.465 154.531 148.465 152.432V151.109H160.786C168.031 151.109 173.649 150.954 174.501 150.72C180.623 149.009 181.708 140.532 176.206 137.304L174.54 136.332L160.437 136.371C149.511 136.371 145.869 136.527 144.281 136.954Z" fill="#9B0000"/>
<path d="M179.887 155.854C179.19 156.32 177.95 156.904 177.175 157.137C176.4 157.409 175.548 158.031 175.315 158.537C174.114 160.792 175.16 164.137 177.485 165.731L178.88 166.664H191.394C201.39 166.664 204.102 166.548 204.955 166.12C208.674 164.176 209.372 159.587 206.427 156.593L205.032 155.193L193.099 155.115C181.631 155.037 181.166 155.076 179.887 155.854Z" fill="#9B0000"/>
<path d="M177.524 174.519C175.935 175.608 174.812 177.669 174.812 179.497C174.812 181.325 175.935 183.386 177.524 184.436C178.763 185.33 179.035 185.33 189.728 185.33C200.422 185.33 200.693 185.33 201.933 184.436C203.521 183.386 204.645 181.325 204.645 179.497C204.645 177.669 203.521 175.608 201.933 174.519C200.693 173.664 200.422 173.664 189.728 173.664C179.035 173.664 178.763 173.664 177.524 174.519Z" fill="#9B0000"/>
<path d="M177.485 193.263C173.959 195.674 173.998 200.691 177.523 203.102C178.763 203.957 179.112 203.996 187.558 203.996C195.385 203.996 196.431 203.919 197.399 203.296C200.77 201.041 201.158 196.724 198.252 193.886L196.857 192.525L187.868 192.408L178.88 192.291L177.485 193.263Z" fill="#9B0000"/>
</svg>
