<svg width="80" height="80" viewBox="0 0 80 80" fill="none" xmlns="http://www.w3.org/2000/svg">
<path d="M22.3671 13.0507C19.4484 13.3618 17.0075 15.4358 15.9743 18.495C15.6643 19.4413 15.6127 19.7783 15.6127 21.0097C15.6127 22.7337 15.8968 23.9133 16.7363 25.6633C18.5185 29.3705 22.238 33.3889 27.7268 37.5239C29.664 38.9887 29.8448 39.0924 30.3485 39.0924C31.0071 39.0924 35.2949 35.7999 37.8262 33.35C41.7523 29.552 43.9349 26.3632 44.7098 23.33C45.0197 22.1115 45.0585 20.1672 44.7744 19.0653C43.8703 15.5007 40.8612 13.0248 37.4258 13.0248C36.0568 13.0119 35.269 13.1804 34.1455 13.7118C33.3189 14.1007 31.5883 15.3321 31.033 15.9414C30.5422 16.4728 30.0773 16.3951 29.2249 15.6562C26.7582 13.5044 24.8597 12.7915 22.3671 13.0507ZM31.2396 20.2968C31.9628 20.7375 32.1049 21.1005 32.1824 22.6819L32.247 24.1207L33.6805 24.1855C34.7395 24.2374 35.1916 24.3022 35.4498 24.4837C36.2635 25.0151 36.4959 26.0132 36.031 26.8947C35.579 27.7502 35.1141 27.9447 33.5126 27.9447H32.1824V29.2539C32.1824 30.7575 32.0016 31.3019 31.3558 31.6908C30.6843 32.0927 30.1935 32.1445 29.5478 31.8464C28.6308 31.4445 28.4371 31.0168 28.4371 29.3316V27.9447H27.1198C25.2084 27.9447 24.4852 27.5039 24.3431 26.2336C24.2656 25.5855 24.4722 25.0799 25.0147 24.5744C25.3246 24.2763 25.4796 24.2503 26.8615 24.1855L28.3725 24.1207L28.4371 22.6171C28.4888 21.3467 28.5404 21.0486 28.76 20.8153C29.4445 20.0375 30.4647 19.8172 31.2396 20.2968Z" fill="#F5F5F5"/>
<path d="M28.6309 42.346C28.5018 42.9423 27.8173 43.72 27.1199 44.07L26.4483 44.407H21.1532C18.0666 44.407 15.4965 44.4718 15.0058 44.5496C12.7844 44.9126 10.8988 46.5458 10.2014 48.7235C9.87857 49.7346 9.73651 52.8975 9.95606 54.5178C10.2918 57.1103 12.0224 59.1065 14.5021 59.7676C14.9283 59.8843 15.8323 59.962 16.8526 59.962H18.4928V58.4843V57.0066L16.9172 56.9547C15.0316 56.877 14.4504 56.6825 13.7401 55.8659C13.0427 55.0752 12.9394 54.6085 12.9394 52.1068C12.9394 50.0716 12.9652 49.8642 13.2493 49.268C13.611 48.4902 13.9726 48.1402 14.7475 47.7902C15.3028 47.531 15.574 47.518 20.7916 47.518C26.9261 47.518 27.4557 47.4662 28.7859 46.6625C29.7545 46.0662 30.1678 45.6774 30.7748 44.757C31.2397 44.0441 31.5497 43.2534 31.7305 42.3978L31.795 42.009H30.2453H28.6955L28.6309 42.346Z" fill="#F5F5F5"/>
<path d="M61.7574 45.4052C61.7574 45.47 61.8866 45.8718 62.0287 46.2866C62.2611 46.9218 62.287 47.2588 62.2353 48.1921L62.1836 49.3328H64.4308C66.9492 49.3328 67.3367 49.2421 67.8662 48.5032C68.2536 47.9458 68.2665 46.7922 67.8791 46.2607C67.285 45.457 66.975 45.3793 64.25 45.3404C62.8681 45.3144 61.7574 45.3404 61.7574 45.4052Z" fill="#F5F5F5"/>
<path d="M48.0936 45.6515C47.2153 45.8848 45.6785 46.5977 44.8778 47.1292C44.542 47.3625 43.5604 48.2699 42.7081 49.1384C41.6491 50.2272 40.9387 50.8365 40.4609 51.0698C39.1048 51.7698 38.7432 51.7957 30.0644 51.7957H22.0831V51.7957C21.598 51.7957 21.2049 52.1921 21.2049 52.6772V52.6772V54.8289V56.9807H28.1918H35.1787L35.6178 57.4214C35.9794 57.7844 36.0569 57.9529 36.0569 58.4325C36.0569 58.7436 35.9665 59.1325 35.8503 59.288C35.3854 59.9621 35.437 59.9621 28.0497 59.9621H21.2049V62.0361C21.2049 63.786 21.2436 64.1749 21.4244 64.4601C21.8764 65.1471 21.8119 65.1471 30.8781 65.1471C41.352 65.1471 41.804 65.1989 46.2596 66.7026C49.1267 67.6618 50.4699 67.8951 53.7244 67.9729C55.2225 67.9988 56.4624 68.0118 56.4624 67.9859C56.4624 67.9599 56.372 67.6488 56.2686 67.2989C55.8812 66.0026 56.1007 64.7193 56.9273 63.5527L57.3664 62.9435L56.9273 62.3213C55.8037 60.7528 55.8037 58.7695 56.9144 57.3177L57.3664 56.7215L56.8627 56.0085C56.2428 55.1271 56.0103 54.2456 56.1137 53.1438L56.1911 52.3142H53.8794H51.5547L51.4772 52.6642C50.8057 55.7493 49.7854 57.7714 48.1323 59.288C47.2412 60.1047 46.1305 60.7398 45.5881 60.7398C45.3685 60.7398 45.1361 60.5972 44.9165 60.338C44.2966 59.6121 44.5161 59.0936 45.7301 58.3418C47.0862 57.5251 48.0936 56.177 48.7522 54.2975C49.1138 53.2994 49.4884 51.5105 49.4884 50.8106V50.3698H53.5953C56.0103 50.3698 57.883 50.318 58.1671 50.2402C60.2077 49.6699 60.5693 46.844 58.7354 45.7681L58.18 45.4441L53.479 45.457C49.837 45.457 48.6231 45.5089 48.0936 45.6515Z" fill="#F5F5F5"/>
<path d="M59.9623 51.9513C59.7299 52.1068 59.3166 52.3013 59.0583 52.3791C58.8 52.4698 58.5159 52.6772 58.4384 52.8457C58.038 53.5975 58.3867 54.7123 59.1616 55.2438L59.6265 55.5549H63.798C67.1301 55.5549 68.0341 55.516 68.3182 55.3734C69.558 54.7253 69.7905 53.1957 68.809 52.1976L68.344 51.7309L64.3663 51.705C60.5435 51.6791 60.3885 51.692 59.9623 51.9513Z" fill="#F5F5F5"/>
<path d="M59.1744 58.1732C58.6449 58.5362 58.2704 59.2232 58.2704 59.8324C58.2704 60.4417 58.6449 61.1287 59.1744 61.4787C59.5877 61.7768 59.6781 61.7768 63.2426 61.7768C66.8071 61.7768 66.8975 61.7768 67.3108 61.4787C67.8403 61.1287 68.2148 60.4417 68.2148 59.8324C68.2148 59.2232 67.8403 58.5362 67.3108 58.1732C66.8975 57.888 66.8071 57.888 63.2426 57.888C59.6781 57.888 59.5877 57.888 59.1744 58.1732Z" fill="#F5F5F5"/>
<path d="M59.1615 64.4211C57.9863 65.2248 57.9992 66.897 59.1744 67.7006C59.5877 67.9858 59.7039 67.9988 62.5194 67.9988C65.1282 67.9988 65.4769 67.9729 65.7997 67.7655C66.9233 67.0136 67.0525 65.5748 66.0839 64.6285L65.6189 64.1748L62.6227 64.136L59.6264 64.0971L59.1615 64.4211Z" fill="#F5F5F5"/>
</svg>
