<svg width="30" height="30" viewBox="0 0 30 30" fill="none" xmlns="http://www.w3.org/2000/svg">
<path d="M15 19.4687C15.1667 19.4687 15.3229 19.4425 15.4688 19.39C15.6146 19.3383 15.75 19.25 15.875 19.125L19.125 15.875C19.3542 15.6458 19.4687 15.3542 19.4687 15C19.4687 14.6458 19.3542 14.3542 19.125 14.125C18.8958 13.8958 18.6042 13.7812 18.25 13.7812C17.8958 13.7812 17.6042 13.8958 17.375 14.125L16.25 15.25V11.25C16.25 10.8958 16.1304 10.5987 15.8913 10.3587C15.6513 10.1196 15.3542 10 15 10C14.6458 10 14.3492 10.1196 14.11 10.3587C13.87 10.5987 13.75 10.8958 13.75 11.25V15.25L12.625 14.125C12.3958 13.8958 12.1042 13.7812 11.75 13.7812C11.3958 13.7812 11.1042 13.8958 10.875 14.125C10.6458 14.3542 10.5313 14.6458 10.5313 15C10.5313 15.3542 10.6458 15.6458 10.875 15.875L14.125 19.125C14.25 19.25 14.3854 19.3383 14.5312 19.39C14.6771 19.4425 14.8333 19.4687 15 19.4687ZM15 27.5C13.2708 27.5 11.6458 27.1717 10.125 26.515C8.60417 25.8592 7.28125 24.9688 6.15625 23.8438C5.03125 22.7188 4.14083 21.3958 3.485 19.875C2.82833 18.3542 2.5 16.7292 2.5 15C2.5 13.2708 2.82833 11.6458 3.485 10.125C4.14083 8.60417 5.03125 7.28125 6.15625 6.15625C7.28125 5.03125 8.60417 4.14042 10.125 3.48375C11.6458 2.82792 13.2708 2.5 15 2.5C16.7292 2.5 18.3542 2.82792 19.875 3.48375C21.3958 4.14042 22.7188 5.03125 23.8438 6.15625C24.9688 7.28125 25.8592 8.60417 26.515 10.125C27.1717 11.6458 27.5 13.2708 27.5 15C27.5 16.7292 27.1717 18.3542 26.515 19.875C25.8592 21.3958 24.9688 22.7188 23.8438 23.8438C22.7188 24.9688 21.3958 25.8592 19.875 26.515C18.3542 27.1717 16.7292 27.5 15 27.5Z" fill="#F5F5F5"/>
</svg>
