<svg width="20" height="20" viewBox="0 0 20 20" fill="none" xmlns="http://www.w3.org/2000/svg">
<path d="M17.1114 14.6875C16.7429 13.8148 16.2083 13.0221 15.5372 12.3535C14.8681 11.683 14.0755 11.1484 13.2032 10.7793C13.1954 10.7754 13.1875 10.7734 13.1797 10.7695C14.3965 9.89062 15.1875 8.45898 15.1875 6.84375C15.1875 4.16797 13.0196 2 10.3438 2C7.66802 2 5.50005 4.16797 5.50005 6.84375C5.50005 8.45898 6.29106 9.89062 7.50786 10.7715C7.50005 10.7754 7.49224 10.7773 7.48442 10.7812C6.60942 11.1504 5.82427 11.6797 5.15044 12.3555C4.47995 13.0245 3.94537 13.8171 3.57622 14.6895C3.21357 15.5435 3.01798 16.4591 3.00005 17.3867C2.99953 17.4076 3.00318 17.4283 3.0108 17.4477C3.01842 17.4671 3.02985 17.4848 3.04441 17.4997C3.05897 17.5147 3.07637 17.5265 3.09559 17.5346C3.1148 17.5427 3.13545 17.5469 3.1563 17.5469H4.32817C4.41411 17.5469 4.48247 17.4785 4.48442 17.3945C4.52349 15.8867 5.12895 14.4746 6.19927 13.4043C7.30669 12.2969 8.77739 11.6875 10.3438 11.6875C11.9102 11.6875 13.3809 12.2969 14.4883 13.4043C15.5586 14.4746 16.1641 15.8867 16.2032 17.3945C16.2051 17.4805 16.2735 17.5469 16.3594 17.5469H17.5313C17.5522 17.5469 17.5728 17.5427 17.592 17.5346C17.6112 17.5265 17.6286 17.5147 17.6432 17.4997C17.6578 17.4848 17.6692 17.4671 17.6768 17.4477C17.6844 17.4283 17.6881 17.4076 17.6875 17.3867C17.668 16.4531 17.4747 15.5449 17.1114 14.6875ZM10.3438 10.2031C9.44731 10.2031 8.60356 9.85352 7.9688 9.21875C7.33403 8.58398 6.98442 7.74023 6.98442 6.84375C6.98442 5.94727 7.33403 5.10352 7.9688 4.46875C8.60356 3.83398 9.44731 3.48438 10.3438 3.48438C11.2403 3.48438 12.084 3.83398 12.7188 4.46875C13.3536 5.10352 13.7032 5.94727 13.7032 6.84375C13.7032 7.74023 13.3536 8.58398 12.7188 9.21875C12.084 9.85352 11.2403 10.2031 10.3438 10.2031Z" fill="#1E1E1E"/>
</svg>
